<svg height="247.319" viewBox="0 0 350.467 247.319" width="350.467" xmlns="http://www.w3.org/2000/svg"><path d="m127 216.712c68.668 22.959 148.954 11.795 175.863 8.425s53.271-14.695 72.11-34.207c21.816-22.595 32.146-55.1 30.08-86.44-1.061-16.126-5.392-32.4-14.916-45.455-13.579-18.606-36.853-28.848-59.884-29.406s-45.675 7.8-64.856 20.562c-15.2 10.121-28.727 23.114-45.653 30.036-22.783 9.336-48.416 6.447-73.032 6.022s-51.712 2.877-68.596 20.793c-12.336 13.093-16.927 32.594-13.225 50.2s15.159 33.146 30.036 43.25z" fill="#f5f5f5" transform="translate(-63.646 -29.602)"/><path d="m15.757 36.747h306.094v204.059h-306.094z" fill="#fafafa"/><path d="m230.953 171.333h-12.153l-2.32 5.613h-6.21l11.667-26.186h5.988l11.706 26.186h-6.359zm-1.906-4.6-4.154-10.033-4.149 10.027z" fill="#455a64" transform="translate(-129.27 -83.828)"/><path d="m289.546 165.565c0 6.325-4.381 10.364-10.027 10.364a7.827 7.827 0 0 1 -6.325-2.619v2.32h-5.574v-27.76h5.839v9.767a7.785 7.785 0 0 1 6.077-2.431c5.629 0 10.01 4.039 10.01 10.359zm-5.911 0c0-3.475-2.21-5.574-5.127-5.574s-5.127 2.1-5.127 5.574 2.21 5.574 5.127 5.574 5.127-2.094 5.127-5.574z" fill="#455a64" transform="translate(-154.938 -82.534)"/><path d="m311.64 171.508c0-6.077 4.674-10.358 11.049-10.358s11.049 4.3 11.049 10.358-4.64 10.364-11.049 10.364-11.049-4.304-11.049-10.364zm16.2 0c0-3.475-2.21-5.574-5.127-5.574s-5.16 2.1-5.16 5.574 2.243 5.58 5.16 5.58 5.149-2.1 5.149-5.58z" fill="#455a64" transform="translate(-174.639 -88.478)"/><path d="m378.9 161.681v20.125h-5.524v-2.392a8.132 8.132 0 0 1 -6.243 2.69c-5.055 0-8.607-2.84-8.607-9.054v-11.369h5.834v10.5c0 3.364 1.5 4.861 4.083 4.861 2.69 0 4.635-1.724 4.635-5.425v-9.947z" fill="#455a64" transform="translate(-195.625 -88.71)"/><path d="m416.264 177.236a8.32 8.32 0 0 1 -4.751 1.271c-4.751 0-7.519-2.431-7.519-7.22v-8.287h-3.1v-4.47h3.1v-4.9h5.839v4.9h5.011v4.491h-5.011v8.193a2.343 2.343 0 0 0 2.5 2.652 3.934 3.934 0 0 0 2.359-.746z" fill="#455a64" transform="translate(-214.584 -85.112)"/><path d="m474.039 161.681v20.125h-5.524v-2.392a8.148 8.148 0 0 1 -6.248 2.69c-5.049 0-8.607-2.84-8.607-9.054v-11.369h5.84v10.5c0 3.364 1.5 4.861 4.077 4.861 2.7 0 4.64-1.724 4.64-5.425v-9.947z" fill="#455a64" transform="translate(-238.202 -88.71)"/><path d="m496.85 179.7 1.945-4.187a13.756 13.756 0 0 0 6.977 1.945c2.7 0 3.707-.713 3.707-1.834 0-3.315-12.154.077-12.154-7.966 0-3.817 3.442-6.508 9.314-6.508a16.5 16.5 0 0 1 7.734 1.757l-1.945 4.154a11.518 11.518 0 0 0 -5.8-1.5c-2.618 0-3.74.823-3.74 1.867 0 3.442 12.154.116 12.154 8.043 0 3.74-3.48 6.4-9.5 6.4a17.045 17.045 0 0 1 -8.692-2.171z" fill="#455a64" transform="translate(-257.532 -88.478)"/><path d="m363.053 378.9c-11.811-12.413-29.152-18.49-46.305-18.369-12.529.083-25.6 3.823-37.24-.8-10.778-4.276-17.617-14.656-26-22.65a70.983 70.983 0 0 0 -48.261-19.413c-12.054-.039-25.324 2.729-35.268-4.088-6.707-4.6-10.137-12.529-14.85-19.164-13.811-19.451-40.4-27.561-62.652-18.965v103.308z" fill="#ebebeb" transform="translate(-76.551 -138.107)"/><g fill="#263238"><path d="m398.2 300.041c0-.939-.044-79.656-.116-204.059l.116.116h-306.048l.144-.144v204.059l-.133-.133 306.094.133-306.094.133h-.133v-204.336h306.338v.116c-.122 124.459-.168 203.174-.168 204.115z" transform="translate(-76.35 -59.234)"/><path d="m156.129 176.62c0 .2-1.5.376-3.364.376s-3.364-.171-3.364-.376 1.508-.37 3.364-.37 3.364.166 3.364.37z" transform="translate(-102.027 -95.236)"/><path d="m167.75 160.36c.2 0 .37 1.525.37 3.414s-.166 3.414-.37 3.414-.37-1.53-.37-3.414.166-3.414.37-3.414z" transform="translate(-110.074 -88.124)"/><path d="m174.94 176.226c0-.21 1.5-.376 3.359-.376s3.364.166 3.364.376-1.5.37-3.364.37-3.359-.166-3.359-.37z" transform="translate(-113.457 -95.057)"/><path d="m168.17 187.558c-.2 0-.37-1.53-.37-3.414s.166-3.414.37-3.414.37 1.53.37 3.414-.165 3.414-.37 3.414z" transform="translate(-110.262 -97.241)"/><path d="m176.345 183.672c-.155.127-.818-.4-1.481-1.2s-1.066-1.536-.912-1.657.823.4 1.481 1.193 1.073 1.526.912 1.664z" transform="translate(-113.001 -97.272)"/><path d="m175.708 167.178c.149.144-.293.823-.978 1.514s-1.359 1.138-1.5.994.293-.823.978-1.519 1.357-1.133 1.5-.989z" transform="translate(-112.679 -91.163)"/><path d="m161.846 170.367c-.127.155-.762-.155-1.42-.7s-1.072-1.1-.945-1.271.768.155 1.425.7 1.061 1.104.94 1.271z" transform="translate(-106.529 -91.701)"/><path d="m161.387 180.238c.149.144-.232.807-.856 1.492s-1.249 1.1-1.4.983.227-.8.851-1.486 1.273-1.132 1.405-.989z" transform="translate(-106.368 -97.009)"/><path d="m502.083 144.7a8.807 8.807 0 0 1 -3.823 0 8.807 8.807 0 0 1 3.823 0z" transform="translate(-258.163 -81.021)"/><path d="m508.68 135.47a9.036 9.036 0 0 1 0 3.873 9.035 9.035 0 0 1 0-3.873z" transform="translate(-262.733 -76.984)"/><path d="m512.76 144.47a8.781 8.781 0 0 1 3.817 0 4.446 4.446 0 0 1 -1.906.215 4.384 4.384 0 0 1 -1.911-.215z" transform="translate(-264.653 -80.918)"/><path d="m508.92 150.908a9.06 9.06 0 0 1 0-3.878 9.059 9.059 0 0 1 0 3.878z" transform="translate(-262.84 -82.158)"/><path d="m513.563 148.67c-.094.072-.47-.232-.845-.679s-.6-.873-.514-.95.464.232.84.68.608.879.519.949z" transform="translate(-264.396 -82.158)"/><path d="m513.2 139.337c.083.083-.166.47-.552.862s-.773.641-.856.552.166-.464.552-.856.769-.641.856-.558z" transform="translate(-264.211 -78.708)"/><path d="m505.321 141.147c-.077.088-.436-.088-.807-.4s-.613-.63-.552-.718.436.083.807.392.624.638.552.726z" transform="translate(-260.711 -79.015)"/><path d="m505.066 146.758c.083.077-.133.453-.486.845s-.707.635-.8.552.133-.459.486-.845.734-.629.8-.552z" transform="translate(-260.627 -82.03)"/><path d="m345.758 223.4a6.768 6.768 0 0 1 -2.928 0 6.546 6.546 0 0 1 2.928 0z" transform="translate(-188.599 -116.262)"/><path d="m350.866 216.32a6.943 6.943 0 0 1 0 2.967 6.723 6.723 0 0 1 0-2.967z" transform="translate(-192.121 -113.17)"/><path d="m353.94 223.22a6.767 6.767 0 0 1 2.928 0 6.547 6.547 0 0 1 -2.928 0z" transform="translate(-193.571 -116.186)"/><path d="m351 228.152a6.972 6.972 0 0 1 0-2.972 6.971 6.971 0 0 1 0 2.972z" transform="translate(-192.184 -117.135)"/><path d="m354.556 226.451c-.066.055-.354-.177-.641-.519s-.47-.668-.4-.729.359.177.646.519.467.678.395.729z" transform="translate(-193.375 -117.141)"/><path d="m354.284 219.281c.061.066-.127.359-.425.663s-.6.492-.657.431.127-.359.425-.657.59-.498.657-.437z" transform="translate(-193.235 -114.49)"/><path d="m348.248 220.672c-.055.066-.331-.066-.619-.3s-.47-.486-.409-.552.331.066.619.3.461.48.409.552z" transform="translate(-190.559 -114.727)"/><path d="m348.049 224.988c.066.061-.1.348-.37.646s-.552.492-.608.431.1-.348.37-.646.542-.503.608-.431z" transform="translate(-190.492 -117.043)"/></g><path d="m485.823 234.565a4.533 4.533 0 0 1 -1.911.21c-1.055 0-1.911-.066-1.911-.21s.851-.215 1.906-.215a4.518 4.518 0 0 1 1.916.215z" fill="#e0e0e0" transform="translate(-250.886 -121.239)"/><path d="m492.42 225.33a9.062 9.062 0 0 1 0 3.878 9.059 9.059 0 0 1 0-3.878z" fill="#e0e0e0" transform="translate(-255.456 -117.202)"/><path d="m496.5 234.34a8.782 8.782 0 0 1 3.817 0 8.782 8.782 0 0 1 -3.817 0z" fill="#e0e0e0" transform="translate(-257.376 -121.141)"/><path d="m492.66 240.778a9.059 9.059 0 0 1 0-3.878 4.656 4.656 0 0 1 .21 1.939 5.13 5.13 0 0 1 -.21 1.939z" fill="#e0e0e0" transform="translate(-255.563 -122.381)"/><path d="m497.3 238.556c-.094.077-.47-.227-.845-.674s-.6-.878-.514-.95.464.227.84.674.611.878.519.95z" fill="#e0e0e0" transform="translate(-257.119 -122.39)"/><path d="m496.936 229.206c.083.083-.166.464-.552.856s-.773.646-.856.552.166-.464.552-.862.773-.628.856-.546z" fill="#e0e0e0" transform="translate(-256.933 -118.93)"/><path d="m489.061 231.007c-.077.094-.436-.083-.807-.392s-.613-.635-.552-.724.436.088.807.4.624.628.552.716z" fill="#e0e0e0" transform="translate(-253.434 -119.234)"/><path d="m488.806 236.618c.083.083-.133.459-.486.845s-.707.641-.8.552.133-.459.486-.845.711-.629.8-.552z" fill="#e0e0e0" transform="translate(-253.35 -122.248)"/><path d="m304.174 145.48.249.6a4.243 4.243 0 0 0 2.309 2.287l.652.265-.624.249a4.221 4.221 0 0 0 -2.326 2.337l-.177.431-.265-.552a4.193 4.193 0 0 0 -2.359-2.138l-.552-.21.74-.354a4.237 4.237 0 0 0 2.055-2.21z" fill="#e0e0e0" transform="translate(-169.913 -81.464)"/><path d="m129.381 226.4.166.4a2.8 2.8 0 0 0 1.536 1.519l.431.177-.414.166a2.823 2.823 0 0 0 -1.547 1.552l-.116.287-.177-.359a2.806 2.806 0 0 0 -1.563-1.425l-.376-.133.492-.238a2.856 2.856 0 0 0 1.365-1.447z" fill="#e0e0e0" transform="translate(-92.144 -117.681)"/><path d="m571.926 156.64.16.4a2.845 2.845 0 0 0 1.536 1.525l.431.171-.409.171a2.806 2.806 0 0 0 -1.552 1.547l-.116.293-.171-.365a2.812 2.812 0 0 0 -1.569-1.42l-.376-.138.492-.238a2.762 2.762 0 0 0 1.365-1.447z" fill="#e0e0e0" transform="translate(-290.209 -86.459)"/><path d="m572.424 187 .249.6a4.232 4.232 0 0 0 2.309 2.293l.652.26-.624.254a4.237 4.237 0 0 0 -2.331 2.331l-.171.436-.265-.552a4.193 4.193 0 0 0 -2.359-2.138l-.552-.2.74-.359a4.226 4.226 0 0 0 2.055-2.177z" fill="#263238" transform="translate(-289.972 -100.047)"/><path d="m388.983 138.93.116.282a1.984 1.984 0 0 0 1.1 1.072l.3.127-.293.116a1.978 1.978 0 0 0 -1.1 1.1l-.083.2-.127-.254a1.956 1.956 0 0 0 -1.1-1.005l-.265-.094.348-.171a1.983 1.983 0 0 0 .967-1.022z" fill="#263238" transform="translate(-208.605 -78.533)"/><path d="m249.238 221.83.149.359a2.53 2.53 0 0 0 1.392 1.381l.392.16-.376.149a2.53 2.53 0 0 0 -1.4 1.409l-.1.265-.16-.331a2.552 2.552 0 0 0 -1.425-1.287l-.343-.127.447-.215a2.575 2.575 0 0 0 1.243-1.315z" fill="#263238" transform="translate(-145.87 -115.636)"/><path d="m636.313 196.572a23.473 23.473 0 0 0 -16.087 40.554l-3.171 11.1 11.214-6.132a23.484 23.484 0 1 0 8.044-45.548z" fill="#f5f5f5" transform="translate(-309.45 -104.321)"/><path d="m636.216 196.568h.42l1.226.05a6.063 6.063 0 0 1 .906.05l1.1.16c.392.066.818.1 1.265.2l1.409.354a23.2 23.2 0 0 1 13.673 10.176l.729 1.2c.21.42.42.851.63 1.287a22.623 22.623 0 0 1 2.21 8.9 24.532 24.532 0 0 1 -.055 3.315c-.039.552-.155 1.1-.232 1.657-.044.282-.083.552-.127.845l-.216.84a22.228 22.228 0 0 1 -2.69 6.568 23.583 23.583 0 0 1 -11.441 9.773 24.042 24.042 0 0 1 -16.115.552l-.762-.265h.116c-3.823 2.094-7.574 4.149-11.215 6.132l-.293.166.088-.326c1.1-3.828 2.16-7.541 3.177-11.1l.039.138a24.711 24.711 0 0 1 -3.823-4.652 24.352 24.352 0 0 1 -2.453-5.237 23.643 23.643 0 0 1 -1.066-5.425c-.044-.447-.061-.895-.066-1.337a11.775 11.775 0 0 1 0-1.326 18.06 18.06 0 0 1 .226-2.58 23.413 23.413 0 0 1 3.271-8.938 24.1 24.1 0 0 1 5.419-6.121l1.458-1.1 1.475-.895a11.466 11.466 0 0 1 1.431-.751c.475-.215.917-.464 1.381-.63a24.241 24.241 0 0 1 4.773-1.354l1.779-.26 1.3-.055h.8l-.8.055-1.3.077-1.768.276a24.546 24.546 0 0 0 -4.74 1.387c-.459.166-.895.42-1.365.635a12.257 12.257 0 0 0 -1.425.757l-1.48.9-1.42 1.1a23.8 23.8 0 0 0 -5.348 6.077 23.2 23.2 0 0 0 -3.187 8.872 18.556 18.556 0 0 0 -.221 2.558 11.483 11.483 0 0 0 0 1.309 8.951 8.951 0 0 0 .066 1.326 23.195 23.195 0 0 0 7.287 15.131l.061.055-.028.083c-1.011 3.558-2.072 7.27-3.16 11.1l-.2-.166 11.209-6.132.055-.033h.066l.757.26a23.694 23.694 0 0 0 15.916-.552 23.346 23.346 0 0 0 11.32-9.651 22.046 22.046 0 0 0 2.674-6.491c.072-.276.144-.552.21-.829l.133-.84c.072-.552.188-1.1.232-1.657a24.983 24.983 0 0 0 .061-3.27 22.367 22.367 0 0 0 -2.16-8.839l-.619-1.276-.718-1.188a23.2 23.2 0 0 0 -6.784-7.066 23.44 23.44 0 0 0 -6.745-3.11l-1.4-.37c-.442-.1-.867-.144-1.254-.215l-1.1-.171c-.331-.05-.635-.044-.9-.066l-1.226-.077a1.909 1.909 0 0 1 -.446.03z" fill="#263238" transform="translate(-309.353 -104.317)"/><path d="m646 226.5h1.657l3.624-5.055v-3.315s2.569-.155 2.265 4.187 0 3.232 0 3.232 5.447 0 5.9.5c.331.343.481 5.756.552 8.7a3.177 3.177 0 0 1 -2.248 3.2 2.448 2.448 0 0 1 -.591.077c-1.359 0-8.287-1.1-8.287-1.1h-2.872z" fill="#263238" transform="translate(-324.286 -113.979)"/><path d="m637.43 231.63 1.022 11.358h2.848v-11.132z" fill="#263238" transform="translate(-320.45 -120.022)"/><path d="m190.887 227.647c-.094 1.773-2.4 4.138-1.69 5.762 1.315 2.994.552 6.58-1.149 9.391s-4.248 4.972-6.751 7.06a56.536 56.536 0 0 0 -1.132-13.01c-.276-1.337-.729-2.828-1.95-3.436-1.585-.784-3.6.348-5.221-.348-1.729-.751-2.077-3.116-3.536-4.309-1.32-1.077-3.259-.961-4.878-.42a49.448 49.448 0 0 1 -4.768 1.823c-1.663.37-3.668.039-4.591-1.4-.552-.884-.16-.342-.7-1.243a4.621 4.621 0 0 1 -4.359-3.663s-1.525-4.193 1.851-6.044c0 0 .768-7.579 8.386-4.171 2.21.983 4.784-2.177 6.922-1.1 1.779.9 2.3 3.375 4.083 4.281 2.044 1.039 4.419-.508 6.707-.6a5.524 5.524 0 0 1 5.524 5.524s.359-1.514 2.84-.851a6.457 6.457 0 0 1 4.412 6.754z" fill="#263238" transform="translate(-102.213 -111.377)"/><path d="m192.552 248.113a5.359 5.359 0 0 0 -.464-2.5 4.275 4.275 0 0 0 -2.834-2.21l.193-7.806a3.11 3.11 0 0 0 -2.762-3.149l-15.3-1.613a9.32 9.32 0 0 0 -10.281 8.684c-.37 5.883-.591 13.082.1 17.468 1.4 8.839 8.165 9.944 8.165 9.944l-.166 6.165a9.725 9.725 0 0 0 9.728 10.524c5.071 0 9.756-4.381 9.607-10.883l.5-19.888a3.48 3.48 0 0 0 2.237-1.1 5.586 5.586 0 0 0 1.277-3.636z" fill="#ffbe9d" transform="translate(-107.11 -119.645)"/><path d="m167.53 254.441a1.138 1.138 0 0 0 1.1 1.144 1.084 1.084 0 1 0 -1.1-1.144z" fill="#263238" transform="translate(-110.14 -129.773)"/><path d="m164.148 252.417c.138.149.994-.486 2.21-.486s2.11.613 2.243.464c.061-.066-.083-.331-.47-.613a3.094 3.094 0 0 0 -1.8-.552 2.939 2.939 0 0 0 -1.762.552c-.369.304-.515.569-.421.635z" fill="#263238" transform="translate(-108.614 -128.794)"/><path d="m188.81 254.85a1.132 1.132 0 0 0 1.1 1.144 1.1 1.1 0 0 0 1.166-1.022 1.133 1.133 0 0 0 -1.1-1.144 1.1 1.1 0 0 0 -1.166 1.022z" fill="#263238" transform="translate(-119.664 -129.957)"/><path d="m185.824 252.828c.138.149.994-.486 2.21-.481s2.11.608 2.243.459c.061-.066-.077-.331-.47-.613a3.094 3.094 0 0 0 -1.8-.552 2.977 2.977 0 0 0 -1.762.552c-.365.307-.492.568-.421.635z" fill="#263238" transform="translate(-118.32 -128.978)"/><path d="m175.331 261.922a8.373 8.373 0 0 0 -1.978-.359c-.309-.028-.6-.094-.657-.3a1.618 1.618 0 0 1 .21-.923l.917-2.359a39.319 39.319 0 0 0 2.066-6.2 39.759 39.759 0 0 0 -2.558 6.016c-.309.829-.6 1.624-.878 2.381a1.806 1.806 0 0 0 -.166 1.221.784.784 0 0 0 .514.453 2.209 2.209 0 0 0 .552.077 7.637 7.637 0 0 0 1.978-.007z" fill="#263238" transform="translate(-112.251 -129.04)"/><path d="m176.252 293.674a22.473 22.473 0 0 0 11.822-3.154s-3.061 6.629-11.894 5.817z" fill="#eb996e" transform="translate(-114.012 -146.379)"/><path d="m184.835 249.187c.122.331 1.337.177 2.762.348s2.585.552 2.762.265c.083-.144-.116-.453-.58-.773a4.833 4.833 0 0 0 -4.221-.47c-.507.216-.773.475-.723.63z" fill="#263238" transform="translate(-117.883 -127.47)"/><path d="m163.785 247.249c.215.276 1.05 0 2.061 0s1.862.182 2.061-.1c.088-.144-.05-.42-.42-.68a2.989 2.989 0 0 0 -3.315.1c-.365.26-.481.542-.387.68z" fill="#263238" transform="translate(-108.45 -126.46)"/><path d="m178.32 282.11c0-.028.083-.177.331-.331a2.138 2.138 0 0 1 1.1-.3 2.165 2.165 0 0 1 1.1.287c.249.155.359.3.337.326a5.359 5.359 0 0 0 -1.425-.32 4.892 4.892 0 0 0 -1.443.338z" fill="#eb996e" transform="translate(-114.969 -142.333)"/><path d="m210.87 262.761a7.1 7.1 0 0 0 .84-.409 2.265 2.265 0 0 0 1.022-1.812 2.315 2.315 0 0 0 -.917-1.884 1.938 1.938 0 0 0 -.84-.326c-.028-.033.409-.182.956.155a2.392 2.392 0 0 1 1.1 2.055 2.271 2.271 0 0 1 -.409 1.265 2.359 2.359 0 0 1 -.8.724 1.376 1.376 0 0 1 -.952.232z" fill="#eb996e" transform="translate(-129.538 -131.945)"/><path d="m158.057 226.759c-1.425 3.812 1.961 6.574 4.6 7.182 3.69.862 7.613-1.469 10.137-.481 1.884.74 3.663 2.21 5.663 1.906.972-.144 1.934-.7 2.878-.447 1.21.331 1.7 1.8 1.657 3.055-.033 1.547-.552 3.083-.359 4.618s1.563 3.121 3.061 2.712a3.679 3.679 0 0 0 2.508-3.315c.177-2.127-.215-4.657-.11-6.789.094-1.878.1-3.944-1.1-5.4s-3.237-1.845-5.11-2.1a142.184 142.184 0 0 0 -23.843-1.26" fill="#263238" transform="translate(-105.749 -117.67)"/><path d="m149.855 223.872a1.226 1.226 0 0 1 -.077-.4 2.342 2.342 0 0 1 .232-1.144 2.574 2.574 0 0 1 1.331-1.265 2.315 2.315 0 0 1 1.16-.127c.414.039.829.149 1.265.171a2.48 2.48 0 0 0 1.3-.287 6.277 6.277 0 0 0 1.21-.878c.4-.343.8-.718 1.265-1.055a4.115 4.115 0 0 1 1.624-.713 5.994 5.994 0 0 1 3.7.63 17.385 17.385 0 0 1 3.27 2.337 12.806 12.806 0 0 0 3.265 2.21 3.762 3.762 0 0 0 1.8.276 5.127 5.127 0 0 0 1.657-.552 15.563 15.563 0 0 1 3.072-1.414 6.077 6.077 0 0 1 2.961-.094 4.569 4.569 0 0 1 2.149 1.155 4.342 4.342 0 0 1 1.022 1.536 3.382 3.382 0 0 1 .227 1.144 2.108 2.108 0 0 1 0 .3v.1a4.227 4.227 0 0 0 -.3-1.5 4.287 4.287 0 0 0 -1.028-1.464 4.419 4.419 0 0 0 -2.083-1.072 5.933 5.933 0 0 0 -2.851.122 15.618 15.618 0 0 0 -3.026 1.426 5.2 5.2 0 0 1 -1.768.552 4.011 4.011 0 0 1 -1.928-.282 13.138 13.138 0 0 1 -3.342-2.243 17.262 17.262 0 0 0 -3.215-2.3 4.8 4.8 0 0 0 -6.281 1.066 6.477 6.477 0 0 1 -1.265.889 2.729 2.729 0 0 1 -1.42.3c-.459-.033-.873-.149-1.271-.2a2.26 2.26 0 0 0 -1.1.1 2.5 2.5 0 0 0 -1.287 1.166 2.4 2.4 0 0 0 -.276 1.1c-.014.271.053.404.008.41z" fill="#455a64" transform="translate(-102.193 -113.971)"/><path d="m156.391 234.289a.719.719 0 0 1 -.387 0 1.331 1.331 0 0 1 -.895-.641 2.619 2.619 0 0 1 -.21-1.735 5.006 5.006 0 0 1 .906-2.138 4.8 4.8 0 0 1 2.248-1.69 4.972 4.972 0 0 1 3.221-.083 11.286 11.286 0 0 1 3.1 1.757 10.828 10.828 0 0 0 3.254 1.823 6.116 6.116 0 0 0 3.646-.2 17.428 17.428 0 0 0 3.165-1.508 28.428 28.428 0 0 1 2.845-1.5 8.076 8.076 0 0 1 2.718-.7 5.049 5.049 0 0 1 3.784 1.271 3.365 3.365 0 0 1 .652.895 1.553 1.553 0 0 1 .133.365 4.121 4.121 0 0 0 -.856-1.177 5.038 5.038 0 0 0 -3.7-1.155 7.9 7.9 0 0 0 -2.641.724 27.715 27.715 0 0 0 -2.806 1.508 17.622 17.622 0 0 1 -3.21 1.541 6.392 6.392 0 0 1 -3.817.21 11.159 11.159 0 0 1 -3.315-1.867 11.137 11.137 0 0 0 -3.011-1.735 4.8 4.8 0 0 0 -3.066.05 4.679 4.679 0 0 0 -2.166 1.591 4.823 4.823 0 0 0 -.906 2.044 2.5 2.5 0 0 0 .149 1.657 1.3 1.3 0 0 0 .8.657 2.11 2.11 0 0 0 .359.033z" fill="#455a64" transform="translate(-104.459 -118.245)"/><path d="m214.482 251.2a8.445 8.445 0 0 0 .492-.773 5.287 5.287 0 0 0 .657-2.364 4.916 4.916 0 0 0 -.21-1.657 6.287 6.287 0 0 0 -.884-1.735c-.387-.552-.845-1.16-1.248-1.823a4.242 4.242 0 0 1 -.724-2.3 5.64 5.64 0 0 1 .74-2.293 4.878 4.878 0 0 0 .619-2.033 3.475 3.475 0 0 0 -1.63-3.033 3.613 3.613 0 0 0 -2.37-.464 7.38 7.38 0 0 0 -.884.215.867.867 0 0 1 .2-.122 3.191 3.191 0 0 1 .663-.2 3.6 3.6 0 0 1 2.486.4 3.663 3.663 0 0 1 1.8 3.215 5.155 5.155 0 0 1 -.63 2.149 5.4 5.4 0 0 0 -.707 2.177 3.961 3.961 0 0 0 .679 2.149c.387.641.84 1.226 1.226 1.818a6.536 6.536 0 0 1 .895 1.818 5.054 5.054 0 0 1 .182 1.757 5.137 5.137 0 0 1 -.74 2.381 3.614 3.614 0 0 1 -.414.552 1.716 1.716 0 0 1 -.198.166z" fill="#455a64" transform="translate(-128.719 -120.431)"/><path d="m167.655 249.956a12.248 12.248 0 0 0 -.232-1.376 5.578 5.578 0 0 0 -9.911-1.928 5.524 5.524 0 0 0 0 6.546 5.067 5.067 0 0 0 1.171 1.182 5.137 5.137 0 0 0 1.4.757 5.568 5.568 0 0 0 5.27-.773 5.69 5.69 0 0 0 2.072-3.066 12.541 12.541 0 0 0 .232-1.37 4.387 4.387 0 0 1 -.122 1.4 5.663 5.663 0 0 1 -2.088 3.248 5.762 5.762 0 0 1 -5.48.862 5.353 5.353 0 0 1 -1.475-.784 5.524 5.524 0 0 1 -1.232-1.232 5.773 5.773 0 0 1 0-6.883 5.786 5.786 0 0 1 5.756-2.259 5.751 5.751 0 0 1 4.491 4.3 4.419 4.419 0 0 1 .148 1.376z" fill="#263238" transform="translate(-105.033 -125.637)"/><path d="m191.122 249.956a10.812 10.812 0 0 0 -.232-1.376 5.58 5.58 0 0 0 -9.911-1.928 5.524 5.524 0 0 0 0 6.546 5.17 5.17 0 0 0 1.171 1.182 5.249 5.249 0 0 0 1.4.757 5.607 5.607 0 0 0 7.325-3.812 11.048 11.048 0 0 0 .232-1.37 4.193 4.193 0 0 1 -.122 1.4 5.646 5.646 0 0 1 -2.044 3.221 5.762 5.762 0 0 1 -5.48.862 5.354 5.354 0 0 1 -1.475-.784 5.569 5.569 0 0 1 -1.237-1.232 5.8 5.8 0 0 1 0-6.883 5.889 5.889 0 0 1 2.712-2.022 5.822 5.822 0 0 1 3.049-.238 5.756 5.756 0 0 1 4.486 4.3 4.225 4.225 0 0 1 .122 1.381z" fill="#263238" transform="translate(-115.551 -125.637)"/><path d="m178.869 252.811v.055-.1.11a3.762 3.762 0 0 1 -.928.088c-.552 0-1.011-.066-1.011-.144s.453-.144 1.011-.144a3.5 3.5 0 0 1 .928.088v.11-.1.055z" fill="#263238" transform="translate(-114.347 -129.442)"/><path d="m207.169 254.756a42.061 42.061 0 0 1 -6.939-.5 22.06 22.06 0 0 1 3.48.1 21.464 21.464 0 0 1 3.458.392z" fill="#263238" transform="translate(-124.775 -130.138)"/><path d="m183.8 269.59a1.5 1.5 0 0 1 .039.889 3.044 3.044 0 0 1 -3.127 2.558 1.491 1.491 0 0 1 -.867-.215c0-.044.343.044.867 0a3.121 3.121 0 0 0 2.928-2.392 6.33 6.33 0 0 0 .16-.84z" fill="#263238" transform="translate(-115.65 -137.012)"/><path d="m145.425 341.38a.738.738 0 0 1 0 .177v.519c0 .475 0 1.149.028 2 0 1.751 0 4.254.039 7.342 0 6.2-.188 14.761-.668 24.208s-.978 17.982-1.315 24.191c-.155 3.077-.282 5.58-.37 7.331q-.066 1.276-.1 1.989c0 .215-.028.387-.033.519a.9.9 0 0 1 0 .177.632.632 0 0 1 0-.177v-.519c0-.475.028-1.143.05-1.994.05-1.735.138-4.243.276-7.336.26-6.193.762-14.745 1.232-24.191s.724-18 .757-24.2c0-3.083.039-5.585.05-7.336 0-.851 0-1.525.028-2v-.519a.74.74 0 0 1 .026-.181z" fill="#263238" transform="translate(-99.161 -169.142)"/><path d="m231.308 321.617c-2.972-3.431-8.778-3.933-11.353-2.072a11.2 11.2 0 0 0 -4.265 8.187 20.329 20.329 0 0 0 1.757 9.275c1.939 4.707 4.806 8.519 9.088 13.369l11.049 14.485-21.3 20.794 8.839 13.927 18.107-14.582 14.97-15.868" fill="#f7941d" transform="translate(-131.673 -158.892)"/><path d="m104.61 404.207a3.471 3.471 0 0 1 1.149-.552 8.13 8.13 0 0 1 3.044-.414 8.226 8.226 0 0 1 2.989.74 3.436 3.436 0 0 1 1.1.674c0 .039-.442-.2-1.16-.486a9.424 9.424 0 0 0 -2.922-.641 9.6 9.6 0 0 0 -2.972.32c-.764.204-1.206.403-1.228.359z" fill="#263238" transform="translate(-81.98 -196.823)"/><path d="m174.818 319.125c-7.43-9.855-15.43-9.043-19.507-9.159v-4.326c-3.011 0-7.126 2.712-9.253 4.652l-2.1 2.889a10.728 10.728 0 0 0 -6.872-6.745 21.22 21.22 0 0 0 -3.519-.8v3.867c-9.988.282-15.33 3.011-22 10.734-.343.4-1.022 1.077-1.8 1.845l-19.744 23.2c-4.033 4.464-7.734 10.607-6.867 16.573.945 6.718 4.861 11.137 12.358 16.2l20.772 13.463-.1 2.315h49.57s33.616-24.8 34.439-33.986c.632-7.247-10.947-22.635-25.377-40.722zm-57.708 52.653-14.535-10.844 15.7-16.247zm47.6.862-.392-8.027 2.11-21.086c4.143 4.751 11.811 14.181 11.811 15.59z" fill="#f7941d" transform="translate(-72.316 -153.147)"/><path d="m204.654 313.51a4.22 4.22 0 0 1 -.376.657c-.265.409-.646 1-1.149 1.713a39.118 39.118 0 0 1 -4.348 5.237c-.47.475-.945.923-1.409 1.348l-.232.215v-.315a7.021 7.021 0 0 0 -2.033-4.839 3.011 3.011 0 0 0 -1.265-.895.79.79 0 0 0 -.552.094.552.552 0 0 1 .552-.193 2.873 2.873 0 0 1 1.376.862 7.043 7.043 0 0 1 1.458 1.978 7.115 7.115 0 0 1 .729 2.989l-.232-.1c.453-.425.928-.867 1.392-1.342a47.41 47.41 0 0 0 4.392-5.149l1.215-1.657a3.769 3.769 0 0 1 .482-.603z" fill="#263238" transform="translate(-121.669 -156.669)"/><path d="m174.49 312.68a3.145 3.145 0 0 1 .431.514l1.1 1.453c.923 1.237 2.171 2.961 3.541 4.873l.895 1.249-.249.039a11.944 11.944 0 0 1 1.1-2.558 4.364 4.364 0 0 1 1.6-1.574 2.961 2.961 0 0 1 1.431-.4 1.172 1.172 0 0 1 .552.077h-.552a3.132 3.132 0 0 0 -1.342.458 4.42 4.42 0 0 0 -1.481 1.547 12.465 12.465 0 0 0 -1.061 2.514l-.088.26-.16-.221-.895-1.249c-1.37-1.911-2.6-3.652-3.475-4.917-.4-.6-.746-1.1-1.022-1.508a2.98 2.98 0 0 1 -.325-.557z" fill="#263238" transform="translate(-113.255 -156.297)"/><path d="m193.3 317.173a8.507 8.507 0 0 1 2.16 6.778c-.1.807-.2 1.884.552 2.182a1.648 1.648 0 0 0 1.53-.508 30.058 30.058 0 0 0 7.789-9.5 1.812 1.812 0 0 0 .287-.967.663.663 0 0 0 -.646-.646.972.972 0 0 0 -.552.4c-2.3 2.652-4.839 5.408-7.137 8.055a5.867 5.867 0 0 0 -1.276-4.083c-.912-1.1-1.906-2.248-2.69-1.713" opacity=".1" transform="translate(-121.674 -157.117)"/><path d="m225.033 436.238a1.4 1.4 0 0 1 -.171-.232c-.122-.177-.271-.409-.464-.7l-1.7-2.63c-1.442-2.287-3.458-5.475-5.806-9.181l-.055-.094.077-.072 5.182-5.171 11.278-11.158c1.436-1.4 2.607-2.541 3.436-3.359l.95-.9a3.015 3.015 0 0 1 .343-.3 2.523 2.523 0 0 1 -.3.342c-.226.238-.552.552-.906.945l-3.392 3.442-11.22 11.22c-1.823 1.817-3.58 3.558-5.187 5.154v-.166c2.309 3.729 4.3 6.933 5.718 9.237.685 1.1 1.237 2.022 1.63 2.674.177.293.315.552.425.718a1.276 1.276 0 0 1 .166.232z" fill="#263238" transform="translate(-132.21 -196.471)"/><path d="m217.607 323.65-.083.1-.254.3c-.238.254-.552.652-.95 1.171a11.723 11.723 0 0 0 -2.116 5.044 14.49 14.49 0 0 0 1.232 7.972 18.819 18.819 0 0 0 2.431 4.16c1.044 1.331 2.149 2.663 3.281 4.094 4.458 5.618 8.287 10.85 11.1 14.606l3.315 4.458c.381.508.679.917.9 1.215l.227.32.072.111a.577.577 0 0 1 -.094-.094l-.249-.3-.939-1.21c-.812-1.033-1.972-2.536-3.4-4.42-2.851-3.723-6.712-8.938-11.159-14.546-1.1-1.409-2.21-2.762-3.281-4.072a19.091 19.091 0 0 1 -2.453-4.232 14.557 14.557 0 0 1 -1.188-8.11 11.756 11.756 0 0 1 3.248-6.2l.276-.276c.045-.064.077-.097.084-.091z" fill="#263238" transform="translate(-130.877 -161.207)"/><path d="m239.757 336.56c0 .028-.3.133-.823.409a8.2 8.2 0 0 0 -1.961 1.508 16.247 16.247 0 0 0 -2.21 2.95 45.179 45.179 0 0 1 -2.469 3.867 9.391 9.391 0 0 1 -7.182 3.823 8.774 8.774 0 0 1 -2.514-.238 5.394 5.394 0 0 1 -.657-.193 1.43 1.43 0 0 1 -.221-.094 12.042 12.042 0 0 0 3.381.32 9.512 9.512 0 0 0 3.53-.945 9.391 9.391 0 0 0 3.414-2.851c.978-1.271 1.718-2.63 2.469-3.812a15.558 15.558 0 0 1 2.293-2.956 7.7 7.7 0 0 1 2.055-1.469 5.11 5.11 0 0 1 .641-.249.978.978 0 0 1 .254-.072z" fill="#fafafa" transform="translate(-134.394 -166.985)"/><path d="m192.459 421.388h-.133l-.37-.088c-.166-.044-.37-.072-.613-.111a7.929 7.929 0 0 0 -.84-.094 15.563 15.563 0 0 0 -5.331.685 26.664 26.664 0 0 0 -3.508 1.282c-1.226.552-2.5 1.226-3.867 1.873a25.263 25.263 0 0 1 -4.464 1.69 13.344 13.344 0 0 1 -2.508.4 10.984 10.984 0 0 1 -2.613-.188 15.329 15.329 0 0 1 -4.745-1.956c-1.425-.851-2.7-1.818-3.922-2.712a23.684 23.684 0 0 0 -6.917-3.967 11.139 11.139 0 0 0 -3.022-.5 8.47 8.47 0 0 0 -2.293.271 9.268 9.268 0 0 0 -1.834.735l.1-.077.331-.2a6.548 6.548 0 0 1 1.37-.552 8.457 8.457 0 0 1 2.326-.32 11.136 11.136 0 0 1 3.072.459 23.4 23.4 0 0 1 7.016 3.95c1.226.895 2.5 1.845 3.911 2.685a15.036 15.036 0 0 0 4.657 1.917 10.391 10.391 0 0 0 2.541.182 12.832 12.832 0 0 0 2.453-.381 25.3 25.3 0 0 0 4.419-1.657c1.37-.641 2.646-1.315 3.867-1.851a26.026 26.026 0 0 1 3.547-1.26 15.1 15.1 0 0 1 5.392-.6 7.231 7.231 0 0 1 1.972.387z" fill="#fafafa" transform="translate(-100.271 -203.238)"/><path d="m123.563 415.61a.831.831 0 0 1 .044.193 4.072 4.072 0 0 1 .066.552 8.324 8.324 0 0 1 -.088 2.05 6.789 6.789 0 0 1 -1.149 2.828 8.75 8.75 0 0 1 -2.834 2.425c-1.1.68-2.248 1.249-3.16 1.911a8.668 8.668 0 0 0 -2.132 2.061 3.43 3.43 0 0 0 -.635 1.856c0 .475.072.735.039.74a.553.553 0 0 1 -.066-.182 2.868 2.868 0 0 1 -.088-.552 3.409 3.409 0 0 1 .552-1.972 8.458 8.458 0 0 1 2.149-2.166c.928-.69 2.05-1.271 3.165-1.939a8.839 8.839 0 0 0 2.762-2.337 6.845 6.845 0 0 0 1.166-2.707 10.027 10.027 0 0 0 .177-2.011 5.287 5.287 0 0 1 .032-.75z" fill="#fafafa" transform="translate(-85.984 -202.365)"/><path d="m267.13 374.213a12.524 12.524 0 0 0 -3.276 1.027 9.767 9.767 0 0 0 -2.944 2.21 9.048 9.048 0 0 0 -1.249 1.79c-.365.668-.613 1.425-.972 2.171a5.348 5.348 0 0 1 -1.453 1.945 6.511 6.511 0 0 1 -1.978 1.1 9.673 9.673 0 0 1 -3.757.464 22.257 22.257 0 0 1 -2.53-.3 5.948 5.948 0 0 1 -.912-.193 5.441 5.441 0 0 1 .928.083c.6.061 1.453.177 2.519.2a9.791 9.791 0 0 0 3.663-.514 5.408 5.408 0 0 0 3.259-2.911c.348-.729.6-1.492.983-2.182a9.022 9.022 0 0 1 1.32-1.818 9.7 9.7 0 0 1 3.055-2.243 9.175 9.175 0 0 1 2.431-.762 6.81 6.81 0 0 1 .691-.077.677.677 0 0 1 .222.01z" fill="#fafafa" transform="translate(-146.182 -183.833)"/><path d="m194.17 378.019-.127.039-.376.083c-.331.072-.823.16-1.464.26a33.282 33.282 0 0 1 -5.453.387 25.27 25.27 0 0 1 -7.983-1.354 26.514 26.514 0 0 1 -4.342-2.038 31.483 31.483 0 0 0 -4.585-2.237 10.5 10.5 0 0 0 -2.5-.552 10.015 10.015 0 0 0 -2.48.122 16.159 16.159 0 0 0 -4.419 1.6c-2.679 1.42-4.933 3-6.972 4.1a16.828 16.828 0 0 1 -5.088 1.989 7.184 7.184 0 0 1 -1.475.16h-.387a.485.485 0 0 1 -.133 0h.133l.381-.044a8.392 8.392 0 0 0 1.458-.216 17.51 17.51 0 0 0 5.011-2.049c2.005-1.1 4.248-2.712 6.944-4.16a16.241 16.241 0 0 1 4.513-1.657 10.326 10.326 0 0 1 2.552-.133 10.676 10.676 0 0 1 2.569.58 30.985 30.985 0 0 1 4.624 2.265 27.68 27.68 0 0 0 4.3 2.033 25.49 25.49 0 0 0 7.894 1.4 35.834 35.834 0 0 0 5.43-.293c.641-.083 1.132-.155 1.469-.21l.381-.05a.482.482 0 0 1 .125-.025z" fill="#fafafa" transform="translate(-100.679 -182.977)"/><path d="m123.444 376.646a1.89 1.89 0 0 0 -.033-.851 2.447 2.447 0 0 0 -1.735-1.42c-.481-.144-1.028-.227-1.613-.359a3.993 3.993 0 0 1 -1.773-.812 4.707 4.707 0 0 1 -1.226-1.768 14.041 14.041 0 0 1 -.635-2.21 12.1 12.1 0 0 0 -.63-2.143 7.978 7.978 0 0 0 -1.033-1.79 7.85 7.85 0 0 0 -2.668-2.248 8.321 8.321 0 0 0 -2.21-.784c-.552-.11-.867-.133-.867-.16a.59.59 0 0 1 .232 0 5.315 5.315 0 0 1 .652.061 7.568 7.568 0 0 1 2.315.713 7.855 7.855 0 0 1 2.762 2.271 8.028 8.028 0 0 1 1.1 1.84 12.29 12.29 0 0 1 .652 2.21 13.908 13.908 0 0 0 .613 2.149 4.5 4.5 0 0 0 1.142 1.655 3.762 3.762 0 0 0 1.657.784c.552.144 1.1.238 1.619.4a2.536 2.536 0 0 1 1.784 1.58 1.348 1.348 0 0 1 0 .668.553.553 0 0 1 -.105.214z" fill="#fafafa" transform="translate(-83.953 -178.411)"/><path d="m180.409 332.159a7.39 7.39 0 0 0 -1.624-.657 5.043 5.043 0 0 0 -2.033 0 10.5 10.5 0 0 0 -2.58.867c-.923.414-1.895.956-2.956 1.514a16.845 16.845 0 0 1 -3.552 1.475 10.32 10.32 0 0 1 -4.248.138 16.537 16.537 0 0 1 -4.331-1.431 73.775 73.775 0 0 1 -7.436-4.657 19.888 19.888 0 0 0 -6.436-2.944 10.452 10.452 0 0 0 -4.745-.055 16.807 16.807 0 0 0 -1.657.552 6.6 6.6 0 0 1 1.657-.657 10.226 10.226 0 0 1 4.817-.033 19.755 19.755 0 0 1 6.535 2.917 78.071 78.071 0 0 0 7.414 4.624 16.457 16.457 0 0 0 4.254 1.414 10.166 10.166 0 0 0 4.138-.122 16.521 16.521 0 0 0 3.508-1.425c1.061-.552 2.044-1.1 2.983-1.492a10.857 10.857 0 0 1 2.635-.84 5.121 5.121 0 0 1 2.088.077 5.254 5.254 0 0 1 1.215.508 3.872 3.872 0 0 1 .354.227z" fill="#fafafa" transform="translate(-97.286 -162.258)"/><path d="m201.862 454.93 1.536.768h8.839l1.784-1.458-6.43-10.64c-.79.348-4.259.889-5.381 1.282a9 9 0 0 1 -3.011.508 16.384 16.384 0 0 1 -3.409-.282l-.243-.077a1.22 1.22 0 0 0 -.475-.1 1.154 1.154 0 0 0 -1.177 1.707c.536.79 3.149 1.845 6.486 1.751h.16c2.928 0 .243 2.453-1.5 3.911a2.309 2.309 0 0 0 -.84 2.094.983.983 0 0 0 .392.718c.744.47 3.269-.182 3.269-.182z" fill="#ffbe9d" transform="translate(-121.861 -214.892)"/><path d="m143.125 412.8a.678.678 0 0 1 0-.155v-.458c0-.425.033-1.017.061-1.762.066-1.547.155-3.751.271-6.469.227-5.48.552-13.015.889-21.341s.552-15.888.707-21.352c.061-2.718.1-4.922.138-6.475 0-.746.028-1.337.039-1.762v-.453a.613.613 0 0 1 0-.16.521.521 0 0 1 0 .16v2.215c0 1.53 0 3.74-.044 6.475-.077 5.469-.3 13.021-.624 21.363s-.685 15.883-.972 21.341c-.155 2.712-.276 4.917-.365 6.464-.05.746-.088 1.337-.116 1.757l-.039.459a.733.733 0 0 1 .055.153z" fill="#263238" transform="translate(-99.193 -174.079)"/><path d="m186.2 399.023a.823.823 0 0 1 0-.2c0-.149-.028-.348-.05-.6l-.16-2.326c-.066-1.005-.149-2.243-.193-3.679s-.149-3.066-.16-4.872-.077-3.79-.05-5.917v-3.315c0-1.155.05-2.3.077-3.491.138-4.779.387-10.027.773-15.529.773-11.01 1.757-20.948 2.387-28.147.309-3.591.552-6.5.74-8.53.083-.989.155-1.768.2-2.315.028-.254.044-.453.061-.6s.028-.2.028-.2a.938.938 0 0 1 0 .2l-.028.608q-.058.829-.149 2.32c-.127 2.016-.354 4.933-.646 8.535-.58 7.182-1.53 17.126-2.3 28.147-.387 5.524-.641 10.745-.8 15.518 0 1.193-.061 2.359-.088 3.491s0 2.21-.039 3.315c-.033 2.121 0 4.1 0 5.906s.083 3.442.116 4.873.094 2.674.144 3.679.083 1.779.111 2.326v.608a.967.967 0 0 1 .028.2z" fill="#263238" transform="translate(-118.218 -159.256)"/><path d="m193.5 365.059c-.028-.028.282-.155.624.138a.8.8 0 1 1 -1.21.2c.227-.392.552-.37.552-.331s-.238.094-.365.42a.652.652 0 0 0 0 .552.586.586 0 0 0 1.016-.171.663.663 0 0 0 -.155-.514c-.207-.278-.462-.245-.462-.294z" fill="#263238" transform="translate(-121.454 -179.717)"/><path d="m190.693 409.957c-.028-.028.287-.16.63.138a.812.812 0 0 1 .265.7.773.773 0 0 1 -.668.635.79.79 0 0 1 -.84-.381.834.834 0 0 1 .033-.751c.227-.392.552-.365.552-.331a.956.956 0 0 0 -.365.42.63.63 0 0 0 0 .552.552.552 0 0 0 1.011-.171.63.63 0 0 0 -.155-.508c-.203-.303-.463-.26-.463-.303z" fill="#263238" transform="translate(-120.2 -199.811)"/><path d="m253.033 430.256a3.651 3.651 0 0 1 -.74-.094 10.114 10.114 0 0 1 -1.945-.624 10.872 10.872 0 0 1 -4.972-4.447 17.184 17.184 0 0 1 -1.376-3.442 10.22 10.22 0 0 0 -1.221-2.707 5.044 5.044 0 0 0 -1.4-1.4c-.4-.249-.657-.331-.646-.359a.619.619 0 0 1 .188.044 3.012 3.012 0 0 1 .514.221 4.641 4.641 0 0 1 1.514 1.381 10.044 10.044 0 0 1 1.309 2.762 17.682 17.682 0 0 0 1.37 3.381 11.092 11.092 0 0 0 4.812 4.419 17.559 17.559 0 0 0 2.593.865z" fill="#fafafa" transform="translate(-142.902 -203.068)"/><path d="m282.892 397.922-9.392-27.258 4.342-26.152c1.265-7.055 1.972-13.259.077-16.811-5.066-9.463-11.181-10.314-19.534-12.485-1.724-.447-14.833-.889-16.275-.552-11.375 1.276-18.656 7.309-22.65 17.126l-4.331 17.457-5.95 18.23a7.806 7.806 0 0 1 -5.243 4.27l-22.936 7.839.193 4.491-.193 6.077 30.55-5.751c6.121-1.149 12.347-3.409 14.1-9.314l3.287-9.734c1.608 4.121 3.359 7.9 3.359 7.9l-2.206 24.545z" fill="#455a64" transform="translate(-116.169 -157.132)"/><path d="m303.185 360.63-8.729 29.185a14.087 14.087 0 0 1 -9.391 9.436l-36.328 9.679-4.817-12.54 32.837-12.209 8.06-29.224s1.862-16.341 16.639-15.5" fill="#455a64" transform="translate(-144.33 -168.266)"/><path d="m301.29 339.468h-.442c-.293 0-.724-.033-1.293 0a14.434 14.434 0 0 0 -4.856.989 13.056 13.056 0 0 0 -3.132 1.757 15.166 15.166 0 0 0 -2.989 3.06 22.219 22.219 0 0 0 -3.828 9.684c-2.21 8.132-4.972 18.087-8.027 29.24v.066h-.061l-32.862 12.271.083-.182.856 2.21c1.353 3.536 2.69 7.016 3.955 10.314l-.171-.088 31.213-8.287 3.519-.939c.552-.155 1.155-.3 1.718-.464a14.7 14.7 0 0 0 1.624-.619 13.888 13.888 0 0 0 6.867-6.795 19.528 19.528 0 0 0 1.028-2.884q.873-2.895 1.657-5.524c2.127-7.038 3.834-12.706 5.011-16.573l1.365-4.475.359-1.155c.083-.26.133-.392.133-.392s-.033.138-.1.4-.188.657-.337 1.166c-.3 1.033-.746 2.541-1.315 4.491l-4.928 16.612q-.779 2.646-1.657 5.524a19.524 19.524 0 0 1 -1.027 2.917 14.118 14.118 0 0 1 -1.657 2.762 14.264 14.264 0 0 1 -5.292 4.187 15.968 15.968 0 0 1 -1.657.635c-.552.166-1.143.309-1.724.47l-3.519.939-31.207 8.331-.122.033-.044-.116c-1.265-3.315-2.608-6.784-3.961-10.314l-.856-2.21-.05-.133.133-.05 32.842-12.2-.083.088c3.088-11.143 5.845-21.1 8.093-29.218a22.208 22.208 0 0 1 3.9-9.751 15 15 0 0 1 3.033-3.077 13.134 13.134 0 0 1 3.171-1.751 14 14 0 0 1 4.895-.945 11.619 11.619 0 0 1 1.293 0z" fill="#263238" transform="translate(-144.169 -168.279)"/><path d="m300.41 403.154a1.531 1.531 0 0 1 -.436.033 5.4 5.4 0 0 1 -1.177-.138 7.679 7.679 0 0 1 -3.447-1.818 8.408 8.408 0 0 1 -2.243-3.188 4.416 4.416 0 0 1 -.215-.646 3.189 3.189 0 0 1 -.111-.5c-.044-.276-.061-.431-.039-.431a14.318 14.318 0 0 0 .552 1.492 9.138 9.138 0 0 0 2.243 3.055 8.23 8.23 0 0 0 3.315 1.834c.939.253 1.558.247 1.558.307z" fill="#263238" transform="translate(-166.177 -193.798)"/><path d="m264.889 368.39a4.915 4.915 0 0 1 -.3.856c-.215.552-.552 1.331-.9 2.315a24.956 24.956 0 0 0 -1.834 7.9 13.153 13.153 0 0 0 .6 4.419 15.819 15.819 0 0 0 1.5 3.315 22.435 22.435 0 0 0 1.376 2.05 6.912 6.912 0 0 1 .552.74 1.639 1.639 0 0 1 -.177-.166c-.111-.116-.26-.276-.447-.5a16.885 16.885 0 0 1 -1.469-2.016 15.721 15.721 0 0 1 -1.574-3.353 13.259 13.259 0 0 1 -.635-4.491 23.783 23.783 0 0 1 1.917-7.966c.392-.972.746-1.746.989-2.282a5.839 5.839 0 0 1 .402-.821z" fill="#263238" transform="translate(-152.229 -181.23)"/><path d="m306.405 424.312a10.847 10.847 0 0 0 -1.337-2.265 10.7 10.7 0 0 0 -2.038-1.657 1.607 1.607 0 0 1 .751.26 5.276 5.276 0 0 1 2.475 2.873 1.657 1.657 0 0 1 .149.789z" fill="#263238" transform="translate(-170.786 -204.504)"/><path d="m236.827 445.7s-10.391.928-10.248 7.679l12.938-.657z" fill="#b78876" transform="translate(-136.568 -215.832)"/><path d="m272.176 237.725q-1.425 6.894-2.718 13.811c-1.1 5.845-2.1 11.955-.448 17.678a39.365 39.365 0 0 0 4.226 8.806c.928 1.58 1.945 3.248 3.591 4.066 2.237 1.1 5.066.232 6.85-1.519a13.925 13.925 0 0 0 3.315-6.629 69.939 69.939 0 0 0 1.657-14.485c.193-4.867.293-9.916-1.1-14.634s-4.458-9.181-9.016-11.049" fill="#263238" transform="translate(-155.168 -120.98)"/><path d="m276.81 228.77a8.055 8.055 0 0 1 4.524-1.685c1.326-2.685 4.469-3.917 7.408-4.486 4.331-.845 3.867-.961 7.894.818s9.762 6.806 10.5 11.159a39.726 39.726 0 0 0 3.63 10.982c1.1 2.293 3.259 3.867 4.535 6.077a9.06 9.06 0 0 1 .525 7.955c-1.039 2.491-3.243 4.69-3.033 7.375a11.371 11.371 0 0 0 .68 4.121c2.094 4.884 1.1 11.391-3.392 14.209a11.61 11.61 0 0 1 -14.479-2.21c-3.016-3.491-3.6-8.474-3.315-13.082s1.342-9.187 1.044-13.811" fill="#263238" transform="translate(-159.05 -115.715)"/><path d="m223.191 437.24-.066-1.591-23.425-2.469-10.264-29.506-43.957-.994 13.3 34.56q32.597.249 64.412 0z" fill="#263238" transform="translate(-100.272 -196.577)"/><path d="m189.382 432.029a2.3 2.3 0 1 0 .845-3.138 2.3 2.3 0 0 0 -.845 3.138z" fill="#fff" transform="translate(-119.783 -208.171)"/><path d="m290.345 292.489c5.27 0 10.01-4.491 9.855-11.165l.95-38.118a3.182 3.182 0 0 0 -2.851-3.232l-15.706-1.657a9.568 9.568 0 0 0 -10.552 8.916c-.376 6.033-.6 13.419.111 17.921 1.436 9.054 8.38 10.209 8.38 10.209l-.171 6.325a9.976 9.976 0 0 0 9.983 10.795z" fill="#b78876" transform="translate(-156.758 -122.991)"/><path d="m278.69 262.551a1.16 1.16 0 0 0 1.1 1.171 1.1 1.1 0 0 0 1.193-1.044 1.155 1.155 0 0 0 -1.1-1.171 1.1 1.1 0 0 0 -1.193 1.044z" fill="#263238" transform="translate(-159.892 -133.392)"/><path d="m275.216 260.484c.144.149 1.028-.5 2.276-.5s2.166.63 2.3.475c.066-.066-.077-.337-.475-.63a3.21 3.21 0 0 0 -1.845-.552 3.061 3.061 0 0 0 -1.806.586c-.389.279-.516.555-.45.621z" fill="#263238" transform="translate(-158.33 -132.397)"/><path d="m300.53 262.971a1.155 1.155 0 0 0 1.1 1.171 1.1 1.1 0 0 0 1.2-1.044 1.16 1.16 0 0 0 -1.1-1.171 1.1 1.1 0 0 0 -1.2 1.044z" fill="#263238" transform="translate(-169.667 -133.58)"/><path d="m297.455 260.9c.144.155 1.022-.5 2.271-.5s2.166.63 2.3.475c.066-.066-.077-.337-.481-.63a3.215 3.215 0 0 0 -1.84-.552 3.077 3.077 0 0 0 -1.812.586c-.377.283-.51.559-.438.621z" fill="#263238" transform="translate(-168.282 -132.585)"/><path d="m286.693 270.223a8.289 8.289 0 0 0 -2.027-.365c-.32-.033-.624-.1-.68-.315a1.657 1.657 0 0 1 .216-.95c.3-.768.613-1.58.945-2.425a41.344 41.344 0 0 0 2.116-6.359 41.535 41.535 0 0 0 -2.624 6.171c-.315.856-.619 1.657-.906 2.447a1.879 1.879 0 0 0 -.166 1.249.812.812 0 0 0 .525.47 2.064 2.064 0 0 0 .552.072 7.953 7.953 0 0 0 2.05.006z" fill="#263238" transform="translate(-162.056 -132.634)"/><path d="m287.7 302.807a23.037 23.037 0 0 0 12.126-3.237s-2.944 6.22-12 5.375z" fill="#aa6550" transform="translate(-163.924 -150.429)"/><path d="m290.1 283.42a2.21 2.21 0 0 1 2.016-.834 2.066 2.066 0 0 1 1.42.757 1.3 1.3 0 0 1 .1 1.492 1.508 1.508 0 0 1 -1.657.414 4.805 4.805 0 0 1 -1.6-.95 1.4 1.4 0 0 1 -.354-.37.414.414 0 0 1 0-.47" fill="#aa6550" transform="translate(-164.935 -142.82)"/><path d="m292.693 280.22c-.2 0-.21 1.348-1.37 2.309s-2.6.812-2.613 1.005c0 .083.32.26.934.276a3.387 3.387 0 0 0 2.21-.757 2.939 2.939 0 0 0 1.055-1.939c.027-.563-.128-.9-.216-.894z" fill="#263238" transform="translate(-164.376 -141.769)"/><path d="m296.445 257.16c.122.343 1.37.182 2.84.359s2.652.552 2.845.271c.088-.149-.122-.464-.6-.8a4.751 4.751 0 0 0 -2.11-.74 4.818 4.818 0 0 0 -2.21.26c-.544.224-.81.49-.765.65z" fill="#263238" transform="translate(-167.836 -131.028)"/><path d="m276.035 253.879c.221.287 1.1 0 2.121 0s1.911.188 2.11-.1c.088-.144-.05-.431-.431-.7a3.044 3.044 0 0 0 -3.409.1c-.363.269-.485.562-.391.7z" fill="#263238" transform="translate(-158.69 -129.41)"/><path d="m272.67 240.479c3.409-1.978 6.729-3.806 8.839-7.121 1.177 3.315 3.475 4.972 6.524 6.734a45.442 45.442 0 0 0 9.833 3.806c-1.707 1.657-1.934 4.337-1.541 6.684s1.293 4.607 1.442 6.983c.193 3.171-.967 6.281-1.039 9.458-.1 4.359 1.823 8.474 3.707 12.4l8.182-4.768-1.177-21.241.1-15.032-12.756-11.852-16.153 1.77z" fill="#263238" transform="translate(-157.198 -117.739)"/><path d="m267.358 282.645c4.149 4.193 3.707 11.667 8.287 15.419 2.8 2.3 6.878 2.514 10.309 1.353s6.314-3.508 8.961-5.983 5.149-5.132 8.159-7.138c2.922-1.95 7.927-3.149 8.635-6.6.519-2.519-2.132-5.552-2.63-8.077-.79-4.011 3.547-7.11 4.27-11.132 1.447-8.038-2.8-17.474-7.215-24.307s-6.917-14.573-18.12-15.209c-10.027-.447-16.855 4.364-20.192 11.325-1.657 3.486-2.061 7.43-2.387 11.286-.757 9-1.177 18.551 2.983 26.572.862 1.657 1.889 3.768.729 5.237-1.061 1.342-3.464 1.287-4.138 2.862s1.1 3.127 2.349 4.392zm12.5-53.382c1.342-.055 5.326 0 9.767 5.917 2.657 3.541 2.652 9.275 2.6 14.275-.05 3.718 0 13.126 0 13.126s.586 11.883-3.453 12.933c-4.972 1.293-9.3.4-13-3.127a24.046 24.046 0 0 1 -6.673-13.535 51.952 51.952 0 0 1 -.657-15.275 21.391 21.391 0 0 1 3.016-8.789 12.292 12.292 0 0 1 8.396-5.525z" fill="#f7941d" transform="translate(-153.703 -115.241)"/><path d="m325.682 314.89c-3.315 1.8-5.607 4.48-8.287 7.121s-5.712 5.2-9.391 6.149-8.1-.182-9.944-3.491c10.369 1.768 22.407-6.513 25.965-16.418a5.767 5.767 0 0 0 -.033 2.624 35.1 35.1 0 0 0 1.69 4.015z" opacity=".3" transform="translate(-168.561 -154.314)"/><path d="m272.991 315.32a10.192 10.192 0 0 0 5.009 6.331 6.628 6.628 0 0 1 1.58.934 1.536 1.536 0 0 1 .481 1.657 1.491 1.491 0 0 1 -1.779.652 4.419 4.419 0 0 1 -1.657-1.171c-1.806-1.746-3.668-3.513-4.176-5.966a2.911 2.911 0 0 0 .6-1.232 5.562 5.562 0 0 0 -.058-1.205z" opacity=".3" transform="translate(-157.099 -157.478)"/><path d="m319.742 311.8a1.4 1.4 0 0 1 -.155.32c-.116.2-.265.519-.5.895a30.517 30.517 0 0 1 -2.143 3.1 33.422 33.422 0 0 1 -3.784 4.127 23.2 23.2 0 0 1 -5.635 3.906 26.223 26.223 0 0 1 -3.348 1.2 25.6 25.6 0 0 1 -3.237.718 22.618 22.618 0 0 1 -5.6.21 19.377 19.377 0 0 1 -3.707-.707c-.431-.116-.751-.249-.972-.326a1.4 1.4 0 0 1 -.331-.138s.475.133 1.337.354a20.706 20.706 0 0 0 3.7.613 23.236 23.236 0 0 0 5.524-.265 25.823 25.823 0 0 0 3.193-.729 26.514 26.514 0 0 0 3.315-1.188 23.562 23.562 0 0 0 5.574-3.867 34.948 34.948 0 0 0 3.8-4.055 35.651 35.651 0 0 0 2.21-3.038c.249-.365.414-.668.552-.862a2.279 2.279 0 0 1 .207-.268z" fill="#263238" transform="translate(-165.101 -155.903)"/><path d="m286.655 323.816a2.581 2.581 0 0 1 -.657.171 10.344 10.344 0 0 1 -1.845.166 11.336 11.336 0 0 1 -10.054-6.027 10.169 10.169 0 0 1 -.724-1.713 2.614 2.614 0 0 1 -.155-.663 23.866 23.866 0 0 0 1.061 2.276 11.6 11.6 0 0 0 9.867 5.922c1.552.044 2.502-.193 2.507-.132z" fill="#263238" transform="translate(-157.444 -157.671)"/><path d="m293.65 341.009a1.183 1.183 0 0 1 .32-.083c.21-.05.552-.094.928-.193a29.222 29.222 0 0 0 3.353-.934 38.248 38.248 0 0 0 10.093-5.4 83.671 83.671 0 0 0 8.7-7.519l2.508-2.431c.276-.271.508-.486.685-.657a1.569 1.569 0 0 1 .254-.215 1.653 1.653 0 0 1 -.21.254l-.652.7c-.552.6-1.4 1.453-2.442 2.5a75.419 75.419 0 0 1 -8.673 7.613 36.631 36.631 0 0 1 -10.2 5.353 25.011 25.011 0 0 1 -3.4.851c-.4.083-.729.11-.945.138a1.32 1.32 0 0 1 -.319.023z" fill="#263238" transform="translate(-166.587 -161.175)"/><path d="m557.489 347.43-19.489-22.981-.044.044c-.768-.757-1.442-1.431-1.784-1.823-6.751-7.823-12.115-10.5-22.451-10.64l-20.087.431c-3.734.309-12.209-1.287-20.048 9.1-14.28 17.893-25.732 33.113-25.086 40.295.812 9.088 35.472 35 35.472 35l47.642-.039-.1-3.63 20.556-13.341c7.414-5.011 11.286-9.391 12.226-16.021.822-5.899-2.835-11.975-6.807-16.395zm-87.289 13.678c0-1.4 7.513-10.209 11.6-14.916l2.127 20.346-.365 7.95zm60.442 12.524-1.133-26.815 15.534 16.07z" fill="#455a64" transform="translate(-235.88 -156.006)"/><rect fill="#e0e0e0" height="29.473" rx="3.42" transform="matrix(.896 -.443 .443 .896 228.085 220.898)" width="43.062"/><path d="m522.154 431.93a2.182 2.182 0 1 1 -.724 3 2.182 2.182 0 0 1 .724-3z" fill="#fff" transform="translate(-268.389 -209.525)"/><path d="m594.526 340.46a.745.745 0 0 1 0 .177v2.486c0 1.735.033 4.21.055 7.265.033 6.132.271 14.6.746 23.943s.961 17.805 1.221 23.932c.133 3.06.221 5.524.271 7.259 0 .84.033 1.5.044 1.972v.514a.864.864 0 0 1 0 .177.91.91 0 0 1 0-.177 3.141 3.141 0 0 0 -.033-.514c0-.47-.061-1.1-.1-1.972-.088-1.729-.216-4.2-.365-7.248-.337-6.143-.8-14.6-1.3-23.932s-.685-17.822-.663-23.954c0-3.049 0-5.524.039-7.265 0-.84 0-1.5.028-1.972v-.514a1.1 1.1 0 0 1 .057-.177z" fill="#263238" transform="translate(-301.19 -168.73)"/><path d="m480.855 317.786c2.541-1.851 5.5-1.293 8.043.552a11.077 11.077 0 0 1 4.215 8.1 20.2 20.2 0 0 1 -1.74 9.176c-1.917 4.657-4.751 8.425-8.988 13.22l-10.916 14.336 21.076 20.573-8.734 13.778-17.645-14.2a84.85 84.85 0 0 1 -14.916-15.673" fill="#455a64" transform="translate(-237.123 -158.071)"/><path d="m451.24 367.62.127.166.37.5c.326.436.812 1.1 1.47 1.911a76.782 76.782 0 0 0 6.077 6.734q2.072 2.063 4.712 4.419c1.757 1.569 3.734 3.121 5.834 4.806l14.032 11.259-.193.033c2.712-4.281 5.657-8.933 8.723-13.783v.177l-10.872-10.607-10.2-9.944-.088-.083.072-.1c3.867-5.055 7.524-9.861 10.927-14.33a71.426 71.426 0 0 0 5.769-7.25 32.975 32.975 0 0 0 3.8-7.452 18.87 18.87 0 0 0 1.238-7.336 12.076 12.076 0 0 0 -1.862-5.933 9.6 9.6 0 0 0 -3.746-3.359 6.955 6.955 0 0 0 -3.641-.807 5.612 5.612 0 0 0 -2.237.663c-.475.254-.7.425-.7.414l.166-.127a4.138 4.138 0 0 1 .514-.326 5.612 5.612 0 0 1 2.254-.707 6.983 6.983 0 0 1 3.7.784 9.6 9.6 0 0 1 3.817 3.375 12.22 12.22 0 0 1 1.922 6.022 19.108 19.108 0 0 1 -1.171 7.331 33.078 33.078 0 0 1 -3.8 7.519 71.882 71.882 0 0 1 -5.773 7.281c-3.4 4.469-7.066 9.281-10.911 14.363v-.188l10.2 9.944 10.87 10.611.083.083-.061.094c-3.072 4.85-6.022 9.5-8.74 13.772l-.077.127-.116-.094-14-11.3c-2.094-1.69-4.083-3.259-5.823-4.828s-3.315-3.044-4.7-4.419a74.439 74.439 0 0 1 -6.049-6.8c-.646-.829-1.1-1.492-1.436-1.939-.155-.215-.271-.387-.354-.508s-.127-.168-.127-.168z" fill="#263238" transform="translate(-237.118 -158.025)"/><path d="m630.886 402.6a8.178 8.178 0 0 1 -1.1-.343 7.641 7.641 0 0 0 -5.375.282 8.84 8.84 0 0 1 -1.066.458 3.248 3.248 0 0 1 .978-.646 6.828 6.828 0 0 1 5.524-.287 3.351 3.351 0 0 1 1.039.536z" fill="#263238" transform="translate(-314.144 -196.101)"/><path d="m524.049 452.871-3.834 1.906a5.4 5.4 0 0 1 -5.823-.652l-2.392-1.951 6.629-10.424c.779.337 3.983.79 5.088 1.182a8.839 8.839 0 0 0 2.978.5 16.473 16.473 0 0 0 3.375-.276c.072-.028.171-.05.238-.077a1.105 1.105 0 0 1 .475-.083c.945-.088 1.7.906 1.166 1.657s-3.116 1.823-6.419 1.729h-.155c-2.9 0-.238 2.425 1.481 3.867a2.276 2.276 0 0 1 .829 2.072.961.961 0 0 1 -.387.713c-.752.483-3.249-.163-3.249-.163z" fill="#a36853" transform="translate(-264.312 -214.063)"/><path d="m541.344 287.033c-5.082 0-9.651-4.331-9.607-10.784l-.917-36.743h.105a3.071 3.071 0 0 1 2.762-3.116l15.148-1.6a9.22 9.22 0 0 1 10.17 8.6c.365 5.817.586 12.938-.105 17.28-1.4 8.745-8.093 9.861-8.093 9.861l.16 6.077a9.617 9.617 0 0 1 -9.623 10.408z" fill="#a36853" transform="translate(-272.735 -121.412)"/><path d="m573.872 258.181a1.1 1.1 0 0 1 -1.077 1.1 1.066 1.066 0 0 1 -1.155-1.011 1.119 1.119 0 0 1 2.232-.094z" fill="#263238" transform="translate(-291.005 -131.452)"/><path d="m575.389 256.162c-.138.149-.983-.481-2.21-.475s-2.083.6-2.21.459.077-.331.464-.613a3.1 3.1 0 0 1 1.773-.552 2.972 2.972 0 0 1 1.746.552c.387.303.514.567.437.629z" fill="#263238" transform="translate(-290.688 -130.472)"/><path d="m552.8 258.58a1.146 1.146 0 1 1 -1.155-1.011 1.1 1.1 0 0 1 1.155 1.011z" fill="#263238" transform="translate(-281.561 -131.63)"/><path d="m553.977 256.572c-.138.149-.989-.481-2.21-.481s-2.088.608-2.21.459c-.066-.061.077-.326.464-.608a3.055 3.055 0 0 1 1.773-.552 2.971 2.971 0 0 1 1.746.552c.382.299.509.564.437.63z" fill="#263238" transform="translate(-281.115 -130.656)"/><path d="m565.032 265.573a7.7 7.7 0 0 1 1.956-.354c.309-.033.6-.094.652-.3a1.569 1.569 0 0 0 -.2-.912c-.293-.746-.591-1.525-.912-2.342a39.313 39.313 0 0 1 -2.044-6.132 39.9 39.9 0 0 1 2.53 5.95c.309.823.6 1.608.873 2.359a1.768 1.768 0 0 1 .16 1.21.785.785 0 0 1 -.5.447 2.159 2.159 0 0 1 -.525.072 8.041 8.041 0 0 1 -1.983.006z" fill="#263238" transform="translate(-287.795 -130.718)"/><path d="m557.525 296.991a22.241 22.241 0 0 1 -11.7-3.121s3.027 6.568 11.761 5.751z" fill="#8f5039" transform="translate(-279.453 -147.878)"/><path d="m554.08 252.98c-.116.331-1.32.171-2.735.343s-2.558.552-2.762.265c-.088-.144.11-.453.552-.768a4.778 4.778 0 0 1 4.176-.459c.559.226.824.464.769.619z" fill="#263238" transform="translate(-280.676 -129.173)"/><path d="m574.886 249.818c-.21.276-1.044 0-2.039 0s-1.845.182-2.038-.1c-.088-.138.05-.409.414-.668a2.806 2.806 0 0 1 1.657-.447 2.762 2.762 0 0 1 1.624.552c.36.245.476.531.382.663z" fill="#263238" transform="translate(-290.621 -127.614)"/><path d="m525.727 238.425c1.486-.265 2.674.193 3.094 1.657.624 2.182.2 3.259.3 4.762l2.21-.663c-.552-5.033.7-8.756.155-13.811a7.524 7.524 0 0 0 8.6-4.088 8.552 8.552 0 0 0 9.115.641 3.514 3.514 0 0 0 3.751 1.757c1.657-.47 3.414-2.828 3.895-4.5.862-3.011.442-7.331-2-9.292s-7.336-1.492-9.237 1c-.751.983-.84 2.8-2.05 3.049-1.077.221-2.055-.552-3.038-1.061a5.947 5.947 0 0 0 -8.06 3.834c-2.563-1.53-5.668-2.53-8.535-1.707s-5.154 4.005-4.176 6.823c.4 1.182 1.315 2.21 1.414 3.442.193 2.4-2.69 4.58-1.768 6.806.514 1.249 2.022 1.8 2.7 2.967.762 1.3.287 2.95.354 4.458.1 2.519 1.392 6.248 3.806 6.966" fill="#263238" transform="translate(-267.543 -111.984)"/><path d="m529.7 258.43a2.083 2.083 0 0 0 -1.657 1.331 4.573 4.573 0 0 0 -.447 2.149 4.8 4.8 0 0 0 1.05 3.2 2.762 2.762 0 0 0 3.116.79" fill="#a36853" transform="translate(-271.291 -132.016)"/><path d="m532.516 265.481a1.028 1.028 0 0 1 -.84-.033 1.8 1.8 0 0 1 -.757-.552 2.055 2.055 0 0 1 -.4-1.1 2.083 2.083 0 0 1 .227-1.1 2.006 2.006 0 0 1 .619-.7c.453-.3.807-.282.8-.249a4.972 4.972 0 0 0 -.674.414 1.928 1.928 0 0 0 -.685 1.657 1.735 1.735 0 0 0 .956 1.464 5.094 5.094 0 0 0 .754.199z" fill="#8f5039" transform="translate(-272.597 -133.488)"/><path d="m557.593 278.06a3.227 3.227 0 0 0 3.978-.762 21.29 21.29 0 0 1 -4.618-3.4s-1.57 2.609.64 4.162z" fill="#fafafa" transform="translate(-284.19 -138.94)"/><path d="m562.726 285.544a4.918 4.918 0 0 0 -1.4-.331 5.247 5.247 0 0 0 -1.4.315.87.87 0 0 1 .331-.32 2.154 2.154 0 0 1 2.149 0c.243.16.354.309.32.336z" fill="#aa6550" transform="translate(-285.759 -143.872)"/><path d="m528.671 331.689a102.164 102.164 0 0 0 6.347-10.717c2.282-4.353 1.895-4.574 1.348-4.768-1.469-.525-4.3 7.5-4.679 5.4s4.585-9.391 3.027-9.855c-2.033-.63-4.845 7.828-5.132 8.524s-1.3.271-1-.342c.425-.878 4.657-10.264 2.663-10.9-1.1-.348-1.5 1.718-1.5 1.718s-3.315 9.088-4.248 8.756.829-5.74 1.552-7.519.182-2.834-.851-2.525c-.707.21-3.055 5.6-3.729 7.375s-2.442 6.684-3.513 3.508c0-.05-.039-.094-.061-.144-.967-3.16-2.762-5.27-3.7-5.524a1.14 1.14 0 0 0 -1.226 1.657 1.107 1.107 0 0 0 .243.414c.05.055.1.138.149.2a16.578 16.578 0 0 1 1.348 3.1 9 9 0 0 1 .481 2.983c0 1.177.552 4.6.508 5.447" fill="#ffad9d" transform="translate(-265.145 -154.645)"/><path d="m433.558 328.926-13.358 26.517s-7.557-21.86-11.634-30.555c-1.552-3.315-4.668-5.613-7.657-7.138v-.061l-.624-.249a31.644 31.644 0 0 0 -6.718-2.326c-14.1-4.038-27.379-2.63-42.753 2.762 0 0-7.983 2.143-11.855 12.557-3.48 9.391-7.386 23.755-8.055 26.3-4.79 16.12 2.05 25.1 11.568 23.992 3.922-.619 7.259-3.867 8.734-5.127l5.033-4.729.111 3.663-5.651 22.622 57.862-.122-10.441-26.788 2.32-12.281 3.972 9.436a16.534 16.534 0 0 0 30.312.392l13.529-34.063z" fill="#f7941d" transform="translate(-182.556 -156.346)"/><path d="m378.806 401.84a5.687 5.687 0 0 1 -.519.746c-.348.464-.873 1.132-1.541 1.934-1.331 1.608-3.248 3.768-5.475 6.049s-4.348 4.243-5.939 5.6c-.79.685-1.447 1.215-1.911 1.569a4.768 4.768 0 0 1 -.74.552 5.643 5.643 0 0 1 .668-.613c.442-.381 1.077-.939 1.851-1.657 1.547-1.4 3.641-3.375 5.861-5.651s4.165-4.419 5.524-5.977c.69-.784 1.232-1.431 1.608-1.873a5.249 5.249 0 0 1 .613-.679z" fill="#263238" transform="translate(-197.482 -196.202)"/><path d="m454.179 390.883a1.2 1.2 0 0 1 .028-.309c.044-.232.088-.519.149-.873l.6-3.215c.508-2.712 1.2-6.458 1.757-10.629q.21-1.563.376-3.044a16.2 16.2 0 0 0 .16-2.834 28.445 28.445 0 0 0 -.713-4.768c-.3-1.348-.552-2.431-.724-3.188-.077-.381-.122-.679-.144-.878a1.239 1.239 0 0 1 0-.315 1.2 1.2 0 0 1 .066.3c.039.2.1.492.2.867.182.746.486 1.817.812 3.165a26.81 26.81 0 0 1 .779 4.8 17.03 17.03 0 0 1 -.144 2.873c-.1.989-.232 2.011-.37 3.055-.552 4.182-1.287 7.927-1.845 10.629-.287 1.32-.519 2.4-.691 3.2-.083.348-.149.635-.2.867a1.547 1.547 0 0 1 -.096.297z" fill="#263238" transform="translate(-238.433 -177.847)"/><path d="m491.68 396.521a37.462 37.462 0 0 1 1.2-6.441 18.881 18.881 0 0 1 -.47 3.271 19.18 19.18 0 0 1 -.73 3.17z" fill="#263238" transform="translate(-255.218 -190.939)"/><path d="m494.685 397.091a25.115 25.115 0 0 1 -.552-3.729 24.669 24.669 0 0 1 -.293-3.762 25.123 25.123 0 0 1 .552 3.729 24.672 24.672 0 0 1 .293 3.762z" fill="#263238" transform="translate(-256.185 -190.724)"/><path d="m417.994 433.14c-.077 0-.144-8.883-.144-19.832s.066-19.838.144-19.838.144 8.878.144 19.838-.067 19.832-.144 19.832z" fill="#263238" transform="translate(-222.174 -192.456)"/><path d="m457.41 363.73c2.712 5.2 5.071 10.369 5.287 16.231.166 4.558-1.657 8.358.227 12.513-.094.072-1.7-3.508-2.414-5.187-1.464-3.458-2.762-6.546-2.762-6.546s1.005-7.806 1.1-9.137-1.438-7.874-1.438-7.874z" opacity=".2" transform="translate(-239.88 -179.145)"/><path d="m335.271 389.207c0 2.608-1.619-6-.1-8.115a7.83 7.83 0 0 1 4.657-2.646 18.791 18.791 0 0 0 5.187-1.657c2.027-1.2 3.315-3.315 4.734-5.171s3.315-9.806 5.657-9.977v11.6a157.9 157.9 0 0 1 -17.468 9.795 8.137 8.137 0 0 0 -2.667 6.171z" opacity=".2" transform="translate(-184.879 -178.21)"/><path d="m378 407.846c3.784-2.127 6.546-4.972 10.822-5.707 4.116-.729 8.353 0 12.518-.287q-.337-3.154-.691-6.32l-11.916-.133z" opacity=".2" transform="translate(-204.339 -193.32)"/><path d="m372.188 361.4c.077 0 .144 2.58.144 5.762s-.066 5.767-.144 5.767a115.818 115.818 0 0 1 0-11.529z" fill="#263238" transform="translate(-201.665 -178.102)"/><path d="m335.788 406.422a2.635 2.635 0 0 1 -.066-1.028 7.293 7.293 0 0 1 .586-2.414 7.182 7.182 0 0 1 1.353-2.077 2.762 2.762 0 0 1 .784-.663 13.314 13.314 0 0 0 -1.873 2.856 12.532 12.532 0 0 0 -.784 3.326z" fill="#263238" transform="translate(-185.406 -195.486)"/><path d="m340.17 390.96a5.2 5.2 0 0 0 .867-.315c.552-.221 1.348-.552 2.315-1.011a80.4 80.4 0 0 0 7.364-3.867c2.8-1.657 5.232-3.287 6.939-4.536.856-.63 1.541-1.149 2-1.519a5.486 5.486 0 0 0 .7-.6 5.6 5.6 0 0 0 -.773.508l-2.05 1.436c-1.74 1.2-4.182 2.812-6.972 4.453s-5.4 2.978-7.3 3.911l-2.265 1.1a5.214 5.214 0 0 0 -.825.44z" fill="#263238" transform="translate(-187.408 -186.029)"/><path d="m420.717 244.927c-.95-1.243-2.458-2.21-2.762-3.729-.381-2.038 1.657-3.95 1.287-5.994a4.315 4.315 0 0 0 -2.845-2.922 28.729 28.729 0 0 1 -3.967-1.525 8.016 8.016 0 0 1 -3.165-3.9 13.313 13.313 0 0 1 -.47-1.342 14.247 14.247 0 0 0 -.668-2.867c-.05-.243-.094-.486-.138-.729l.061.552a5.808 5.808 0 0 0 -.718-1.293c-1.011-1.348-3.033-2.1-4.419-1.155l.663-.442a12.756 12.756 0 0 0 -9.85-7.734 11.8 11.8 0 0 0 -2.5-.083c-2.978-.155-7.281.713-9.1 1.867a15.458 15.458 0 0 0 -5.861 5.977c-.624 1.342-1.05 2.895-2.21 3.79-1.58 1.193-3.8.729-5.767.95a9.033 9.033 0 0 0 -7.182 5.939 11.839 11.839 0 0 0 .906 9.485 2.525 2.525 0 0 1 .475 2.038 2.563 2.563 0 0 1 -1.243 1.1 6.679 6.679 0 0 0 -3.005 3.143 3.687 3.687 0 0 0 .773 4.088 3.359 3.359 0 0 0 3.37.481 7.331 7.331 0 0 0 -.514 2.613 5.469 5.469 0 0 0 2.712 4.856 4.035 4.035 0 0 0 5.165-1.237 6.8 6.8 0 0 0 10.5 5.734c.818-.552 1.657-1.282 2.624-1.1s1.514 1.1 2.177 1.779c1.768 1.84 4.784 2.05 7.11 1.005a11.99 11.99 0 0 0 5.27-5.364 4.11 4.11 0 0 0 7.331-1.028 6.872 6.872 0 0 0 12.3-3.9 5.646 5.646 0 0 0 3.663-9.01zm-55.559 1.707v-.034l.055-.028z" fill="#263238" transform="translate(-195.365 -111.117)"/><path d="m414.631 269.37s7.077-1.171 8.541-10.4c.729-4.591.5-12.115.11-18.264a9.751 9.751 0 0 0 -10.75-9.088l-16.021 1.7a3.248 3.248 0 0 0 -2.906 3.315l1.685 40.1c-1.166.249-3.812.823-5.11 1.2 0 0 12.386 27.683 15.419 27.362s15.153-26.517 15.153-26.517a63.33 63.33 0 0 0 -6.419-1.574 76.352 76.352 0 0 1 .298-7.834z" fill="#ffad9d" transform="translate(-209.79 -119.992)"/><path d="m441.709 256.343a1.182 1.182 0 0 1 -1.138 1.193 1.1 1.1 0 0 1 -1.221-1.066 1.182 1.182 0 0 1 1.138-1.193 1.132 1.132 0 0 1 1.221 1.066z" fill="#263238" transform="translate(-231.797 -130.604)"/><path d="m443.358 254.232c-.149.155-1.044-.508-2.32-.5s-2.21.641-2.342.486c-.072-.072.077-.348.486-.646a3.314 3.314 0 0 1 1.884-.569 3.138 3.138 0 0 1 1.845.6c.365.281.519.563.447.629z" fill="#263238" transform="translate(-231.496 -129.587)"/><path d="m419.454 256.773a1.182 1.182 0 0 1 -1.144 1.193 1.1 1.1 0 0 1 -1.221-1.066 1.182 1.182 0 0 1 1.144-1.193 1.133 1.133 0 0 1 1.221 1.066z" fill="#263238" transform="translate(-221.834 -130.797)"/><path d="m420.69 254.653c-.144.155-1.044-.508-2.315-.5s-2.21.641-2.348.486c-.066-.072.083-.348.492-.646a3.282 3.282 0 0 1 1.878-.58 3.149 3.149 0 0 1 1.845.6c.388.275.52.574.448.64z" fill="#263238" transform="translate(-221.352 -129.77)"/><path d="m432.369 264.162a8.34 8.34 0 0 1 2.072-.37c.32-.033.63-.1.685-.32a1.657 1.657 0 0 0 -.215-.967c-.309-.784-.624-1.613-.961-2.475a42.054 42.054 0 0 1 -2.16-6.48 42.586 42.586 0 0 1 2.674 6.292l.923 2.491a1.856 1.856 0 0 1 .166 1.276.806.806 0 0 1 -.552.475 2.443 2.443 0 0 1 -.552.077 8.421 8.421 0 0 1 -2.077 0z" fill="#263238" transform="translate(-228.406 -129.832)"/><path d="m424.428 297.315a23.467 23.467 0 0 1 -12.358-3.315s3 6.336 12.237 5.475z" fill="#ed9482" transform="translate(-219.587 -147.937)"/><path d="m425.4 276.032a2.5 2.5 0 0 1 .934-.4.823.823 0 0 1 .867.409 2.05 2.05 0 0 0 .133.32c.188.254.58.16.878.249a.928.928 0 0 1 .492 1.221 1.867 1.867 0 0 1 -1.1.95 3.961 3.961 0 0 1 -1.978.271 1.657 1.657 0 0 1 -1.221-.608 1.447 1.447 0 0 1 .094-1.58 4.215 4.215 0 0 1 1.265-1.1" fill="#ed9482" transform="translate(-225.019 -139.709)"/><path d="m425.9 274.36c.2 0 .21 1.37 1.392 2.348s2.652.829 2.663 1.022c0 .088-.326.271-.95.287a3.448 3.448 0 0 1 -2.21-.773 3.016 3.016 0 0 1 -1.1-1.972c-.049-.559.105-.923.205-.912z" fill="#263238" transform="translate(-225.678 -139.146)"/><path d="m420.814 250.857c-.127.343-1.4.182-2.889.359s-2.707.591-2.9.276c-.088-.144.122-.47.608-.807a5.077 5.077 0 0 1 4.419-.486c.541.221.817.492.762.658z" fill="#263238" transform="translate(-220.901 -128.2)"/><path d="m442.786 248.952c-.227.293-1.1 0-2.16 0s-1.945.193-2.149-.11c-.094-.144.05-.436.436-.707a3.127 3.127 0 0 1 3.475.1c.376.291.498.59.398.717z" fill="#263238" transform="translate(-231.394 -127.196)"/><path d="m412.884 225.9a12.518 12.518 0 0 1 -15.148 9.6 11.894 11.894 0 0 1 -7.01 9.336 25.334 25.334 0 0 1 2.978 15.2c-.271 2.21-.917 4.569-2.6 6.077-2.563 2.3-6.883 1.74-9.347-.657a10.045 10.045 0 0 1 -2.53-9.137 14.624 14.624 0 0 1 5.243-8.154 5.85 5.85 0 0 1 -3.016-10.032 13.323 13.323 0 0 0 2.21-2.027 10.979 10.979 0 0 0 .956-2.652c.823-2.326 2.9-3.933 4.878-5.414 1.657-1.249 3.514-2.552 5.6-2.547a24.77 24.77 0 0 0 3.315.238c1.519-.2 2.707-1.359 3.961-2.21a8.629 8.629 0 0 1 6.077-1.657 5.427 5.427 0 0 1 4.536 4.055" fill="#263238" transform="translate(-204.79 -115.627)"/><path d="m438.558 230.566a5.525 5.525 0 0 0 1.889 4.861 16.374 16.374 0 0 0 4.64 2.762 21.037 21.037 0 0 0 -2.392-4.972 7.027 7.027 0 0 0 -4.486-3.027" fill="#263238" transform="translate(-231.287 -119.378)"/><path d="m365.308 248.263a1.221 1.221 0 0 1 -.05-.58 2.21 2.21 0 0 1 .829-1.425 3.668 3.668 0 0 1 2.519-.685c1.033 0 2.177.343 3.442.265a4.353 4.353 0 0 0 3.359-2.083 4.419 4.419 0 0 0 .63-2.171c.055-.79 0-1.619.028-2.48a4.486 4.486 0 0 1 .807-2.525 5.243 5.243 0 0 1 2.21-1.657c1.74-.79 3.723-.8 5.624-1.155a8.17 8.17 0 0 0 2.685-.939 7.183 7.183 0 0 0 1.994-1.895c1.077-1.481 1.8-3.132 2.79-4.541a9.507 9.507 0 0 1 11.181-3.618 9.393 9.393 0 0 1 2.326 1.232 7.333 7.333 0 0 1 1.63 1.536.682.682 0 0 1 -.111-.1l-.3-.3a10.528 10.528 0 0 0 -1.276-1.039 9.673 9.673 0 0 0 -5.707-1.707 9.491 9.491 0 0 0 -7.53 4.154c-.967 1.381-1.685 3.033-2.762 4.558a7.363 7.363 0 0 1 -2.077 1.967 8.286 8.286 0 0 1 -2.762.978c-1.945.359-3.867.37-5.569 1.1a5.044 5.044 0 0 0 -2.1 1.569 4.187 4.187 0 0 0 -.762 2.375c-.05.834 0 1.657-.039 2.48a4.712 4.712 0 0 1 -.68 2.282 4.541 4.541 0 0 1 -3.547 2.154 33.426 33.426 0 0 1 -3.469-.3 3.546 3.546 0 0 0 -2.442.613 2.21 2.21 0 0 0 -.84 1.348 2.355 2.355 0 0 0 -.031.589z" fill="#fafafa" transform="translate(-198.63 -115.795)"/><path d="m390.2 346.58.586 14.717 1.481 14.087 15.651-.668-1.128-27.816z" fill="#263238" transform="translate(-209.799 -171.47)"/><path d="m386.04 346.49.586 14.767 1.481 14.087 15.65-.668-1.127-27.859z" fill="#455a64" transform="translate(-207.937 -171.429)"/><path d="m379.683 384.3a102.087 102.087 0 0 0 12.391-1.326c4.85-.779 4.8-1.215 4.629-1.773-.464-1.492-8.585 1.039-7.126-.519s10.259-1.934 9.706-3.469c-.713-2.005-9.17.8-9.9.983s-.994-.873-.326-1.005c.961-.188 11.01-2.409 10.325-4.386-.376-1.1-2.271-.177-2.271-.177s-9.27 2.762-9.563 1.84 5.1-2.762 6.955-3.259 2.381-1.552 1.514-2.21c-.591-.436-6.314.906-8.137 1.431s-6.817 2.038-4.917-.724c.033-.044.055-.088.083-.133 1.95-2.663 2.563-5.364 2.21-6.27a1.138 1.138 0 0 0 -2.055 0 1.178 1.178 0 0 0 -.188.442 1.093 1.093 0 0 1 -.072.243 16.574 16.574 0 0 1 -1.657 2.934 8.84 8.84 0 0 1 -2.1 2.171c-.945.691-3.315 3.221-4.06 3.668" fill="#ffad9d" transform="translate(-203.05 -178.664)"/><path d="m372.544 379.48 8.275 12.353-13.64 13.91.464-22.562z" fill="#f7941d" transform="translate(-199.496 -186.194)"/></svg>