<svg height="24" viewBox="0 0 24 24" width="24" xmlns="http://www.w3.org/2000/svg"><path d="m0 0h24v24h-24z" fill="none"/><g fill="#a2a2a2"><path d="m100.042 32.858a1.662 1.662 0 0 0 -1.3-.639h-10.511l-.331-1.278a1.66 1.66 0 0 0 -1.606-1.26h-1.758a.535.535 0 1 0 0 1.071h1.764a.571.571 0 0 1 .553.432l2.107 8.392a1.66 1.66 0 0 0 1.606 1.26h6.89a1.645 1.645 0 0 0 1.606-1.26l1.3-5.318a1.583 1.583 0 0 0 -.311-1.4zm-.742 1.157-1.3 5.318a.571.571 0 0 1 -.553.432h-6.89a.571.571 0 0 1 -.553-.432l-1.5-6.026h10.243a.573.573 0 0 1 .449.225.542.542 0 0 1 .1.483z" transform="translate(-80.201 -25.399)"/><path d="m252.118 413.84a1.8 1.8 0 1 0 1.8 1.8 1.805 1.805 0 0 0 -1.8-1.8zm0 2.5a.708.708 0 1 1 .708-.708.723.723 0 0 1 -.708.712z" transform="translate(-241.394 -397.713)"/><path d="m444.758 413.84a1.8 1.8 0 1 0 1.8 1.8 1.805 1.805 0 0 0 -1.8-1.8zm0 2.5a.708.708 0 1 1 .708-.708.723.723 0 0 1 -.708.712z" transform="translate(-428.094 -397.713)"/></g></svg>