<svg height="220.697" viewBox="0 0 249.466 220.697" width="249.466" xmlns="http://www.w3.org/2000/svg"><path d="m13.144 30.916h93.054v83.25h-93.054z" fill="#fafafa"/><path d="m134.023 171.811v-6c0-3.908-.032-9.622-.054-16.9-.027-14.549-.064-35.332-.107-60.349l.209.209-93.092.038.247-.247v83.25l-.22-.214 67.3.107 18.987.059h5.071l-4.98.027-18.934.059-67.447.107h-.22v-.22c0-24.46 0-52.963-.027-83.25v-.247h.257l93.044.038h.214v.209c-.043 25.071-.08 45.9-.107 60.478 0 7.258-.043 12.957-.054 16.854v4.422a10.811 10.811 0 0 1 -.087 1.57z" fill="#e0e0e0" transform="translate(-27.825 -57.646)"/><path d="m88.777 116.231c0 .139-4.9.252-10.936.252s-10.941-.113-10.941-.252 4.878-.231 10.941-.231 10.936.1 10.936.231z" fill="#e0e0e0" transform="translate(-39.952 -70.525)"/><path d="m129.266 127.882c0 .134-13.455.247-30.019.247s-30.057-.113-30.057-.247 13.455-.252 30.057-.252 30.019.113 30.019.252z" fill="#e0e0e0" transform="translate(-41.015 -75.92)"/><path d="m27.108 62.549h3.919v3.919h-3.919z" fill="#e0e0e0"/><path d="m36.757 62.549h3.919v3.919h-3.919z" fill="#e0e0e0"/><path d="m46.583 62.372h3.919v3.919h-3.919z" fill="#e0e0e0"/><path d="m56.056 62.549h3.919v3.919h-3.919z" fill="#e0e0e0"/><path d="m65.71 62.549h3.919v3.919h-3.919z" fill="#e0e0e0"/><path d="m75.359 62.549h3.919v3.919h-3.919z" fill="#e0e0e0"/><path d="m85.008 62.549h3.919v3.919h-3.919z" fill="#ebebeb"/><path d="m27.108 70.884h3.919v3.919h-3.919z" fill="#ebebeb"/><path d="m36.757 70.884h3.919v3.919h-3.919z" fill="#e0e0e0"/><path d="m46.406 70.884h3.919v3.919h-3.919z" fill="#ebebeb"/><path d="m56.056 70.884h3.919v3.919h-3.919z" fill="#e0e0e0"/><path d="m65.71 70.884h3.919v3.919h-3.919z" fill="#e0e0e0"/><path d="m75.536 70.702h3.919v3.919h-3.919z" fill="#e0e0e0"/><path d="m85.008 70.884h3.919v3.919h-3.919z" fill="#e0e0e0"/><path d="m27.108 79.215h3.919v3.919h-3.919z" fill="#e0e0e0"/><path d="m36.934 79.038h3.919v3.919h-3.919z" fill="#e0e0e0"/><path d="m46.406 79.215h3.919v3.919h-3.919z" fill="#e0e0e0"/><path d="m56.056 79.215h3.919v3.919h-3.919z" fill="#ebebeb"/><path d="m65.71 79.215h3.919v3.919h-3.919z" fill="#e0e0e0"/><path d="m75.359 79.215h3.919v3.919h-3.919z" fill="#e0e0e0"/><path d="m85.008 79.215h3.919v3.919h-3.919z" fill="#e0e0e0"/><path d="m27.108 87.55h3.919v3.919h-3.919z" fill="#e0e0e0"/><path d="m36.757 87.55h3.919v3.919h-3.919z" fill="#e0e0e0"/><path d="m46.406 87.55h3.919v3.919h-3.919z" fill="#e0e0e0"/><path d="m56.238 87.374h3.919v3.919h-3.919z" fill="#e0e0e0"/><path d="m65.71 87.55h3.919v3.919h-3.919z" fill="#e0e0e0"/><path d="m75.359 87.55h3.919v3.919h-3.919z" fill="#ebebeb"/><path d="m85.008 87.55h3.919v3.919h-3.919z" fill="#e0e0e0"/><path d="m27.108 95.886h3.919v3.919h-3.919z" fill="#e0e0e0"/><path d="m36.757 95.886h3.919v3.919h-3.919z" fill="#ebebeb"/><path d="m46.406 95.886h3.919v3.919h-3.919z" fill="#e0e0e0"/><path d="m56.056 95.886h3.919v3.919h-3.919z" fill="#e0e0e0"/><path d="m65.71 95.886h3.919v3.919h-3.919z" fill="#e0e0e0"/><path d="m75.536 95.709h3.919v3.919h-3.919z" fill="#e0e0e0"/><path d="m85.008 95.886h3.919v3.919h-3.919z" fill="#e0e0e0"/><path d="m0 0h5.982v29.757h-5.982z" fill="#e0e0e0" transform="matrix(1 -.005 .005 1 205.298 11.128)"/><path d="m0 0h15.487v16.425h-15.487z" fill="#ebebeb" transform="matrix(1 -.005 .005 1 153.489 11.259)"/><path d="m0 0h15.487v16.425h-15.487z" fill="#f5f5f5" transform="matrix(1 -.005 .005 1 168.905 11.17)"/><path d="m302.9 60.223q15.438.129 30.9-.145a.166.166 0 0 0 0-.327c-10.287-.059-20.606 0-30.893.188a.145.145 0 0 0 0 .284z" fill="#e0e0e0" transform="translate(-149.393 -44.418)"/><path d="m0 0h28.138v13.385h-28.138z" fill="#ebebeb" transform="matrix(1 -.005 .005 1 143.842 27.478)"/><path d="m0 0h28.138v13.385h-28.138z" fill="#f5f5f5" transform="matrix(1 -.005 .005 1 171.844 27.327)"/><path d="m284.9 88.822c18.692.214 37.449 0 56.136-.279a.166.166 0 0 0 0-.327c-18.692-.1-37.449-.086-56.136.322a.145.145 0 0 0 0 .284z" fill="#e0e0e0" transform="translate(-141.037 -57.612)"/><path d="m133.334 40.876h109.007v4.798h-109.007z" fill="#e0e0e0"/><path d="m151.179 43.181h4.422v16.366h-4.422z" fill="#e0e0e0"/><path d="m217.238 43.181h4.428v16.366h-4.428z" fill="#e0e0e0"/><path d="m0 0h5.982v40.923h-5.982z" fill="#ebebeb" transform="matrix(1 -.005 .005 1 211.134 .032)"/><path d="m0 0h9.29v33.166h-9.29z" fill="#f5f5f5" transform="matrix(.99994999 -.01000057 .01000057 .99994999 217.283 6.628)"/><path d="m430.96 57.181a67.163 67.163 0 0 1 -9.29 0 67.158 67.158 0 0 1 9.29 0z" fill="#e0e0e0" transform="translate(-204.545 -43.162)"/><path d="m430.96 54.581a67.161 67.161 0 0 1 -9.29 0 67.163 67.163 0 0 1 9.29 0z" fill="#e0e0e0" transform="translate(-204.545 -41.955)"/><path d="m430.96 97.861a67.16 67.16 0 0 1 -9.29 0 33.231 33.231 0 0 1 4.642-.161 29.8 29.8 0 0 1 4.648.161z" fill="#e0e0e0" transform="translate(-204.545 -62.035)"/><path d="m430.96 95.221a67.163 67.163 0 0 1 -9.29 0 67.156 67.156 0 0 1 9.29 0z" fill="#e0e0e0" transform="translate(-204.545 -60.81)"/><path d="m430.431 76.755c-.086 0-.161-3.345-.161-7.473s.075-7.473.161-7.473.161 3.345.161 7.473-.07 7.473-.161 7.473z" fill="#e0e0e0" transform="translate(-208.535 -45.384)"/><path d="m226.495 15.772h10.115v25.034h-10.115z" fill="#ebebeb"/><path d="m416.131 42.731a1.721 1.721 0 1 1 -1.715-1.721 1.721 1.721 0 0 1 1.715 1.721z" fill="#e0e0e0" transform="translate(-200.379 -35.734)"/><path d="m213.501 11.725h1.061v24.348h-1.061z" fill="#e0e0e0"/><path d="m71.34 341.635a14.878 14.878 0 0 1 9.226-1.12 7.674 7.674 0 0 1 4.556 2.037c1.142 1.26 1.351 3.468.043 4.546a4.355 4.355 0 0 1 -2.868.729c-2.439-.027-5.146-.456-7.092 1.008-1.115.842-1.855 2.23-3.179 2.643a3.113 3.113 0 0 1 -3.458-1.538 5.361 5.361 0 0 1 -.391-3.961 6.047 6.047 0 0 1 3.163-4.342z" fill="#f7941d" transform="translate(-40.446 -174.566)"/><path d="m60.869 297.7c1.715 2.45 5.05 1.635 6.6.145s2.2-3.667 2.793-5.73c1.356-4.723 2.729-9.649 1.715-14.474a8 8 0 0 0 -1.849-3.935 4.2 4.2 0 0 0 -3.983-1.329c-1.683.445-2.723 2.091-3.479 3.661a34.485 34.485 0 0 0 -3.415 14.817 12.139 12.139 0 0 0 1.608 6.862" fill="#f7941d" transform="translate(-36.402 -143.035)"/><path d="m36.383 308.022a8.908 8.908 0 0 0 1.388-8.207 15.674 15.674 0 0 0 -4.857-7.049 26.166 26.166 0 0 0 -8.7-5.13 9.221 9.221 0 0 0 -3.913-.665 4.106 4.106 0 0 0 -3.286 1.983c-.917 1.748-.038 3.865.911 5.6a66.286 66.286 0 0 0 5.714 8.7c1.715 2.209 3.677 4.385 6.288 5.361s5.323.884 6.733-.906" fill="#f7941d" transform="translate(-16.629 -149.84)"/><path d="m62.022 369.15a5.554 5.554 0 0 0 .155-1.11c.075-.815.177-1.828.295-3.039a43.512 43.512 0 0 1 .681-4.46 34.9 34.9 0 0 1 1.608-5.259 19.475 19.475 0 0 1 2.68-4.76 9.987 9.987 0 0 1 3.4-2.82 9.472 9.472 0 0 1 2.873-.868 5.433 5.433 0 0 0 1.11-.161 5.067 5.067 0 0 0 -1.126 0 8.744 8.744 0 0 0 -2.986.772 10.046 10.046 0 0 0 -3.581 2.846 19.062 19.062 0 0 0 -2.782 4.857 32.164 32.164 0 0 0 -1.608 5.361 37.954 37.954 0 0 0 -.6 4.514c-.1 1.292-.129 2.337-.15 3.061a4.947 4.947 0 0 0 .031 1.066z" fill="#263238" transform="translate(-37.668 -177.529)"/><path d="m62.227 340.766a2.385 2.385 0 0 0 0-.536v-1.48c0-1.281 0-3.136.064-5.425.113-4.583.536-9.515 1.27-16.468.718-6.535 1.689-14.147 2.712-19.089.214-1.126.44-2.144.643-3.023s.37-1.656.536-2.278.257-1.072.348-1.431a2.145 2.145 0 0 0 .091-.536 1.919 1.919 0 0 0 -.182.483c-.113.37-.252.842-.429 1.415s-.386 1.372-.606 2.262-.477 1.892-.718 3.013a169.26 169.26 0 0 0 -2.852 17.69c-.761 6.969-1.1 13.31-1.136 17.9 0 2.3 0 4.16.08 5.441.038.6.07 1.072.091 1.474a2.2 2.2 0 0 0 .088.588z" fill="#263238" transform="translate(-37.664 -151.482)"/><path d="m48.348 331.813a9.73 9.73 0 0 0 0-1.544 42.018 42.018 0 0 0 -.472-4.181 54.812 54.812 0 0 0 -1.356-6.088 49.788 49.788 0 0 0 -2.562-7.189 38.4 38.4 0 0 0 -7.5-11.648 19.665 19.665 0 0 0 -1.758-1.635c-.273-.225-.509-.456-.756-.633l-.681-.472a9.649 9.649 0 0 0 -1.263-.853 46.073 46.073 0 0 1 4.256 3.8 40.51 40.51 0 0 1 7.285 11.606 57.412 57.412 0 0 1 2.562 7.14 61.575 61.575 0 0 1 1.442 6.031c.332 1.742.5 3.157.616 4.144a10.946 10.946 0 0 0 .188 1.528z" fill="#263238" transform="translate(-23.758 -154.763)"/><path d="m40.45 401.71 1.222 16.79h21.577l1.228-16.795z" fill="#263238" transform="translate(-27.68 -203.078)"/><path d="m10.684 192.012h28.684v6.62h-28.684z" fill="#263238"/><path d="m36.56 431.84v1.833h28.213v-1.833z" fill="#455a64" transform="translate(-25.876 -217.056)"/><path d="m40.394 438.492-1.324-3.232h25.838l-1.544 3.232z" fill="#455a64" transform="translate(-27.04 -218.643)"/><path d="m64.39 409.968a.656.656 0 0 1 -.1.15c-.086.118-.188.257-.322.429l-1.254 1.608-.059.075-.054-.075-3.088-4.288h.177l-3.039 4.288-.1.134-.107-.123-3.6-4.288h.209c-.064.075-.134.161-.2.247l-3.216 4.042-.107.134-.1-.139-3.045-4.288h.177c-1.5 1.71-2.771 3.157-3.752 4.288l-.064.075-.048-.086c-.5-.826-.89-1.49-1.174-1.967-.123-.214-.225-.386-.3-.536a.756.756 0 0 1 -.1-.188 2.088 2.088 0 0 1 .129.166l.332.5 1.233 1.935h-.118l3.683-4.321.1-.107.08.118 3.072 4.289h-.214l3.218-4.04.2-.247.107-.129.1.123c1.265 1.506 2.477 2.959 3.6 4.288h-.2l3.072-4.288.091-.123.086.123 3.023 4.321h-.118l1.308-1.56.348-.407q.128-.171.134-.133z" fill="#e0e0e0" transform="translate(-27.996 -205.819)"/><path d="m64.929 401.384c0 .075-5.409.134-12.072.134s-12.077-.059-12.077-.134 5.4-.134 12.077-.134 12.072.059 12.072.134z" fill="#455a64" transform="translate(-27.833 -202.864)"/><path d="m65.145 435.484c0 .075-5.9.134-13.123.134s-13.123-.059-13.123-.134 5.9-.134 13.123-.134 13.123.059 13.123.134z" fill="#263238" transform="translate(-26.961 -218.685)"/><path d="m356.094 309.11h50.138a8.11 8.11 0 0 1 8.111 8.111v63.051h-66.343v-63.051a8.111 8.111 0 0 1 8.095-8.111z" fill="#455a64" transform="translate(-170.366 -160.116)"/><path d="m461.219 309.79c.08 0 .139 15.841.139 35.38s-.059 35.38-.139 35.38-.139-15.841-.139-35.38.064-35.38.139-35.38z" fill="#263238" transform="translate(-222.829 -160.432)"/><path d="m383.868 161.479a56.318 56.318 0 0 1 10.089 29.665c.311 7.13-.649 14.726 2.734 21.008 4.857 9.017 15.358 8.711 18.574 18.43 1.4 4.229-1.179 13.53-1.876 17.931-.788 5 2.268 9.193 1.479 14.195-.724 4.583-4.154 7.853-8.271 9.987a11.969 11.969 0 0 1 -10.866.37c-7.269-3.007-13.316-6.181-18.489-12.1-7.269-8.309-9.467-19.834-10.721-30.786a270.1 270.1 0 0 1 1.646-72.77" fill="#263238" transform="translate(-178.167 -89.737)"/><path d="m417.8 305.808a1.928 1.928 0 0 1 .231-.059c.155-.038.391-.075.691-.166a11.793 11.793 0 0 0 5.822-3.661 6.866 6.866 0 0 0 1.3-2.3 12.616 12.616 0 0 0 .456-2.943 29 29 0 0 0 -.7-6.829 61.726 61.726 0 0 1 -1.254-7.843 16.243 16.243 0 0 1 .306-4.289 27.491 27.491 0 0 1 1.362-4.288 45.965 45.965 0 0 0 1.533-4.358 11.119 11.119 0 0 0 .375-4.664 10.545 10.545 0 0 0 -1.742-4.331 19.872 19.872 0 0 0 -3.039-3.441c-2.214-2.069-4.61-3.752-6.658-5.693a37.71 37.71 0 0 1 -8.673-11.976 36.705 36.705 0 0 1 -1.994-5.361c-.257-.8-.407-1.571-.59-2.268s-.263-1.351-.381-1.93c-.166-1.174-.295-2.08-.327-2.68 0-.3-.043-.536-.054-.708a1.3 1.3 0 0 1 0-.241 1.2 1.2 0 0 0 .038.241c.038.161.048.4.086.7.048.616.193 1.522.375 2.68.123.579.257 1.222.4 1.924a19.345 19.345 0 0 0 .611 2.251 37.374 37.374 0 0 0 2.026 5.312 37.887 37.887 0 0 0 8.668 11.868c2.037 1.9 4.439 3.6 6.674 5.677a20.294 20.294 0 0 1 3.082 3.49 10.807 10.807 0 0 1 1.785 4.449 11.363 11.363 0 0 1 -.38 4.776c-.418 1.522-1 2.964-1.544 4.38a27.933 27.933 0 0 0 -1.362 4.235 15.959 15.959 0 0 0 -.306 4.23 57.387 57.387 0 0 0 1.228 7.81 29.2 29.2 0 0 1 .665 6.883 13.161 13.161 0 0 1 -.482 2.991 7.252 7.252 0 0 1 -1.346 2.343 11.106 11.106 0 0 1 -3.388 2.654 10.85 10.85 0 0 1 -2.546.965 6.265 6.265 0 0 1 -.948.17z" fill="#455a64" transform="translate(-196.561 -121.456)"/><path d="m243.16 349.073 25.731-12.217s10.019-48.647 11.917-52.3 9.81-6.808 9.81-6.808l-1.324 65.871-2.359 15.208-36.28 3.436z" fill="#f7941d" transform="translate(-121.727 -145.567)"/><path d="m201.781 432.3c-.145 0-.858.44-.263 1.571s4.959 4.867 6.24 3.565-.675-2.889-.675-2.889z" fill="#ffbe9d" transform="translate(-102.299 -217.27)"/><path d="m205.877 423.752a47.911 47.911 0 0 1 7.285 1.437 7.665 7.665 0 0 0 6.685-.954 19.031 19.031 0 0 0 2.852-2.326l6.711-.107a8.041 8.041 0 0 0 1.308-8.314 9.022 9.022 0 0 0 -1.533-2.621 7.108 7.108 0 0 0 -4.235-1.935l-7.971 1.721s-12.329-.884-14.549.155c0 0-2.761 1.635-3.613 2.321-.322.263-1.3 3.4.708 5.039 0 0-1.748 1.388-.8 2.637l.45.536s-1.174 1.522-.568 2.187 5.9 3.752 7.778 3.023.327-2.493-.509-2.814" fill="#ffbe9d" transform="translate(-100.911 -206.427)"/><path d="m201.891 421.09a5.811 5.811 0 0 1 .654.236c.413.155 1.019.381 1.78.622.375.123.793.247 1.249.365s.943.22 1.453.386a3.1 3.1 0 0 1 1.447.874 1.774 1.774 0 0 1 .386 1.764 1.383 1.383 0 0 1 -.649.7 2.521 2.521 0 0 1 -.879.247 7.437 7.437 0 0 1 -1.678-.091 15.012 15.012 0 0 1 -2.723-.708c-.756-.268-1.351-.536-1.764-.7a3.5 3.5 0 0 1 -.627-.3 5.655 5.655 0 0 1 .659.22c.418.15 1.024.381 1.78.627a16.081 16.081 0 0 0 2.68.659 7.409 7.409 0 0 0 1.608.075 2.246 2.246 0 0 0 .8-.225 1.158 1.158 0 0 0 .536-.59 1.571 1.571 0 0 0 -.311-1.533 2.932 2.932 0 0 0 -1.346-.82c-.493-.166-.986-.273-1.437-.4s-.874-.263-1.249-.391c-.761-.263-1.356-.536-1.764-.692a3.662 3.662 0 0 1 -.605-.325z" fill="#eb996e" transform="translate(-101.954 -212.069)"/><path d="m202.924 414a4.517 4.517 0 0 1 .649.236c.418.161 1.019.391 1.769.638s1.656.536 2.68.767a3.7 3.7 0 0 1 1.56.633 1.3 1.3 0 0 1 .456.809 1.668 1.668 0 0 1 -.134.938 2.246 2.246 0 0 1 -1.378 1.169 3.618 3.618 0 0 1 -1.678.134 16.123 16.123 0 0 1 -2.68-.783l-1.774-.622a4.949 4.949 0 0 1 -.643-.252 4.088 4.088 0 0 1 .67.172l1.8.536a18.23 18.23 0 0 0 2.68.729 3.478 3.478 0 0 0 1.581-.139 2.053 2.053 0 0 0 1.249-1.072 1.249 1.249 0 0 0 -.263-1.5 3.565 3.565 0 0 0 -1.469-.6 26.034 26.034 0 0 1 -2.68-.815c-.75-.279-1.34-.536-1.748-.708a4.325 4.325 0 0 1 -.647-.27z" fill="#eb996e" transform="translate(-102.515 -208.78)"/><path d="m208.234 414.144a6.676 6.676 0 0 1 -.241-1.072 5.9 5.9 0 0 1 -.263-1.072 1.892 1.892 0 0 1 .477 1 1.78 1.78 0 0 1 .027 1.144z" fill="#eb996e" transform="translate(-105.289 -207.852)"/><path d="m227.094 409.795-4.691-1.78s-13.021-6.079-13.241-5.747-.927.29-.772 1.876 7.741 4.792 7.982 5.361-.161 3.334 2.643 5.323a9.7 9.7 0 0 0 4.825 2.037" fill="#ffbe9d" transform="translate(-105.586 -203.331)"/><path d="m223.746 416.692h-.123l-.322-.032a7.8 7.8 0 0 1 -1.217-.295 11.906 11.906 0 0 1 -3.978-2.289 5.607 5.607 0 0 1 -1.608-2.739 12.445 12.445 0 0 1 -.279-1.753.975.975 0 0 0 -.048-.2.386.386 0 0 0 -.123-.129 4.241 4.241 0 0 0 -.381-.247c-.263-.155-.536-.306-.826-.456-1.126-.606-2.332-1.212-3.543-1.908a21.153 21.153 0 0 1 -1.807-1.142 6.585 6.585 0 0 1 -.847-.708 2.144 2.144 0 0 1 -.359-.45.88.88 0 0 1 -.107-.295 1.323 1.323 0 0 1 0-.289 2.053 2.053 0 0 1 .2-1.131 1.377 1.377 0 0 1 .413-.413.917.917 0 0 0 .182-.155l.043-.048a.134.134 0 0 1 .091-.027.4.4 0 0 1 .091 0l.145.038c.7.214 1.351.5 2 .767q1.93.8 3.683 1.608c2.343 1.072 4.433 2.026 6.191 2.852.44.2.852.407 1.249.579l1.147.45 1.839.729 1.158.466.295.129a.111.111 0 0 1 .1.048c0 .005-.037 0-.107-.032l-.306-.1-1.174-.434-1.855-.659-1.158-.434c-.407-.166-.82-.37-1.26-.568l-6.208-2.8q-1.761-.8-3.688-1.608c-.643-.263-1.3-.536-1.973-.756l-.118-.027h-.043v-.054c.15.1.038.032.07.054a.981.981 0 0 1 -.225.2 1.1 1.1 0 0 0 -.354.348 1.865 1.865 0 0 0 -.172 1.013 1 1 0 0 0 .113.482 2.061 2.061 0 0 0 .322.407 6.279 6.279 0 0 0 .82.681c.579.418 1.185.783 1.785 1.131 1.206.7 2.4 1.308 3.533 1.914.284.155.536.306.831.472a4.626 4.626 0 0 1 .4.257.536.536 0 0 1 .182.209 1.073 1.073 0 0 1 .054.241 13.907 13.907 0 0 0 .263 1.737 5.511 5.511 0 0 0 1.533 2.68 12.191 12.191 0 0 0 3.9 2.321 8.624 8.624 0 0 0 1.2.327c.139.032.247.043.322.054z" fill="#eb996e" transform="translate(-105.492 -203.205)"/><path d="m205.8 430.56a1.608 1.608 0 0 1 .5.145 5.044 5.044 0 0 1 1.228.708 4.5 4.5 0 0 1 .708.691 1.463 1.463 0 0 1 .381 1.072 1.211 1.211 0 0 1 -.868.938 2.316 2.316 0 0 1 -1.362-.043 24.956 24.956 0 0 1 -4.321-1.731 12.949 12.949 0 0 1 -1.211-.718 2.069 2.069 0 0 1 -.413-.311 2.532 2.532 0 0 1 .456.236c.289.166.708.4 1.238.654a30.265 30.265 0 0 0 4.288 1.662 2.144 2.144 0 0 0 1.244.048 1.018 1.018 0 0 0 .734-.761 1.313 1.313 0 0 0 -.322-.954 4.466 4.466 0 0 0 -.665-.681 7.442 7.442 0 0 0 -1.615-.955z" fill="#eb996e" transform="translate(-101.907 -216.462)"/><path d="m313.493 388.563c-4.213-14.211-7.928-32.512-12.142-46.723-1.544 13.117.386 30.437 2.8 43.421.284 1.522.413 3.013 1.608 4.015l7.735-.713" opacity=".3" transform="translate(-148.468 -175.301)"/><path d="m302.067 400.524c-.059 0-.236-.927-.809-2.348a16.666 16.666 0 0 0 -1.206-2.391 18.131 18.131 0 0 0 -1.983-2.605 17.659 17.659 0 0 0 -2.455-2.171 15.978 15.978 0 0 0 -2.294-1.383c-1.372-.675-2.294-.922-2.278-.976a2.885 2.885 0 0 1 .654.155 5.446 5.446 0 0 1 .745.247 9.768 9.768 0 0 1 .965.4 15.011 15.011 0 0 1 2.359 1.351 17.156 17.156 0 0 1 2.514 2.187 17.341 17.341 0 0 1 1.994 2.68 15.331 15.331 0 0 1 1.174 2.45c.145.359.231.7.322.992a5.507 5.507 0 0 1 .193.767 3.422 3.422 0 0 1 .105.645z" fill="#263238" transform="translate(-143.94 -197.019)"/><path d="m314.931 265.7s-13.471 30.1-13.471 35.642 10.094 43.919 10.094 43.919c-.1 1.528-.488 9.177-.488 9.177l56.6.2.863-12.169-4.417-11.595 4.412-32.78s2.97-19.03 3.216-24.353c.332-6.658-22.225-14.377-21.608-15.3l-3.892-5.232-22.305 18.113-4.412-12.737-5.285 4.991z" fill="#f7941d" transform="translate(-148.775 -134.182)"/><path d="m363.063 286.163c-6.127 10.362-17.336 29.242-17.336 29.242l-20.091 22.911s-1.313 11.638 1.313 15.208a24.823 24.823 0 0 0 7.135 6.009s5.3 0 12.04-5.634 25.323-28.915 25.323-28.915l6.384-7.7s7.612-18.7 6.191-28.213c-.536-3.672-2.112-5.194-4.192-6.878-5.236-4.221-13.341-1.825-16.767 3.97z" fill="#f7941d" transform="translate(-159.838 -146.636)"/><path d="m378.971 337.4a1.655 1.655 0 0 1 -.1.214c-.07.15-.172.348-.295.611-.268.536-.675 1.313-1.233 2.3-1.11 1.978-2.836 4.771-5.087 8.143-1.131 1.683-2.391 3.511-3.779 5.452a64.356 64.356 0 0 0 -4.262 6.277c-1.3 2.337-2.477 4.889-3.9 7.44a47 47 0 0 1 -5.109 7.457 29.881 29.881 0 0 1 -6.765 5.982 21.3 21.3 0 0 1 -7.837 3.034 17.566 17.566 0 0 1 -7.591-.322 14.382 14.382 0 0 1 -3.216-1.3 14.686 14.686 0 0 1 -2.648-1.79 12.012 12.012 0 0 1 -1.994-2.107 11.845 11.845 0 0 1 -1.319-2.23 14.108 14.108 0 0 1 -1.072-3.988 18.447 18.447 0 0 1 -.091-2.611c0-.289.032-.536.043-.681a1.606 1.606 0 0 1 0-.231 1.53 1.53 0 0 1 0 .231v.681a19.841 19.841 0 0 0 .139 2.594 14.246 14.246 0 0 0 1.115 3.94 11.978 11.978 0 0 0 1.319 2.187 11.742 11.742 0 0 0 1.983 2.064 14.5 14.5 0 0 0 2.628 1.753 14.334 14.334 0 0 0 3.168 1.27 17.449 17.449 0 0 0 7.5.29 21.087 21.087 0 0 0 7.73-3.013 29.723 29.723 0 0 0 6.706-5.934 46.515 46.515 0 0 0 5.076-7.408c1.421-2.536 2.568-5.109 3.913-7.435a69.754 69.754 0 0 1 4.288-6.288c1.394-1.93 2.68-3.752 3.8-5.425 2.273-3.35 4.02-6.127 5.157-8.084.574-.981 1-1.748 1.276-2.273l.327-.6a1.033 1.033 0 0 1 .13-.2z" fill="#263238" transform="translate(-158.614 -173.242)"/><path d="m322.448 386.83c0 .038-.284.214-.654.627a3.216 3.216 0 0 0 -.365 3.945 7.553 7.553 0 0 0 .536.734c0 .032-.338-.15-.692-.622a3.163 3.163 0 0 1 .391-4.2 1.608 1.608 0 0 1 .783-.488z" fill="#263238" transform="translate(-157.68 -196.174)"/><path d="m330.93 381.5a1.6 1.6 0 0 1 .316.075l.375.1.536.1a7.469 7.469 0 0 0 3.313-.311 12.131 12.131 0 0 0 4.288-2.509 32.3 32.3 0 0 0 3.994-4.637 28.031 28.031 0 0 1 4.122-4.6c.729-.611 1.442-1.152 2.037-1.737a5.709 5.709 0 0 0 1.34-1.849 3.372 3.372 0 0 0 -.306-3.163 2.487 2.487 0 0 0 -.97-.724 1.644 1.644 0 0 1 .311.091 2.053 2.053 0 0 1 .745.568 3.463 3.463 0 0 1 .407 3.3 5.959 5.959 0 0 1 -1.362 1.941c-.606.6-1.324 1.158-2.037 1.769a28.628 28.628 0 0 0 -4.063 4.578 31.651 31.651 0 0 1 -4.053 4.664 12.131 12.131 0 0 1 -4.374 2.5 7.286 7.286 0 0 1 -3.393.23l-.536-.123c-.15-.043-.273-.1-.37-.129a1.448 1.448 0 0 1 -.322-.129z" fill="#263238" transform="translate(-162.447 -184.766)"/><path d="m384.026 285.51a2.9 2.9 0 0 1 -.225.322c-.177.225-.4.536-.686.9-.611.761-1.453 1.9-2.482 3.313a108.426 108.426 0 0 0 -7.146 11.616c-2.53 4.7-4.621 9.054-6.224 12.163-.793 1.56-1.447 2.814-1.924 3.672l-.52.981a1.963 1.963 0 0 1 -.209.332 2.09 2.09 0 0 1 .156-.359l.5-1.013 1.839-3.7c1.555-3.136 3.624-7.5 6.154-12.211a97.555 97.555 0 0 1 7.237-11.6c1.072-1.4 1.914-2.525 2.552-3.265l.729-.863a1.707 1.707 0 0 1 .249-.288z" fill="#263238" transform="translate(-178.072 -149.168)"/><path d="m322.781 393.155c2.611 1.415 5.484 1.265 8.4.7a13.037 13.037 0 0 0 7.5-4.492 13.021 13.021 0 0 1 -3.468 6.851 8.289 8.289 0 0 1 -7.1 2.4c-2.552-.466-5.135-2.868-5.361-5.457" opacity=".3" transform="translate(-158.657 -197.348)"/><path d="m366.9 355.081a11.52 11.52 0 0 1 1.608 8.641 16.925 16.925 0 0 0 2.144-11.681 38.312 38.312 0 0 0 -4.037-11.4 38 38 0 0 0 -2.016 3.752 40.8 40.8 0 0 0 1 7.532 4.187 4.187 0 0 1 1.217 3.785" opacity=".3" transform="translate(-178.065 -174.745)"/><path d="m339.32 385.438c5.328 4.154 13.235 4.347 19.062.938 5.613-3.286 9.07-9.2 12.276-14.86 4.969-8.759 11.027-19.593 14.575-29.017 0 0-9.944 13.568-12.94 19.416a96.514 96.514 0 0 1 -6.786 11.407 29.248 29.248 0 0 1 -25.667 12.508" opacity=".3" transform="translate(-166.339 -175.608)"/><path d="m312.537 406.68a.538.538 0 0 1 0-.166v-.488c0-.456.038-1.072.07-1.86.075-1.608.177-3.913.306-6.663v.064c-.96-3.216-2.085-7.119-3.254-11.332-1.544-5.586-2.846-10.668-3.726-14.361-.434-1.844-.777-3.345-.992-4.385-.1-.5-.182-.9-.241-1.2a3.579 3.579 0 0 1 -.07-.423 2.193 2.193 0 0 1 .123.407l.295 1.19c.263 1.072.627 2.541 1.072 4.358.927 3.683 2.262 8.754 3.806 14.334 1.163 4.213 2.273 8.116 3.216 11.338v.038c-.166 2.75-.306 5.039-.407 6.669-.054.777-.1 1.4-.129 1.855a4.736 4.736 0 0 1 -.043.482.562.562 0 0 1 -.027.139z" fill="#263238" transform="translate(-150.245 -186.45)"/><path d="m415.958 282.411c0 .043-.579-.161-1.506-.391a18.171 18.171 0 0 0 -3.693-.536 17.786 17.786 0 0 0 -3.72.289c-.943.177-1.517.338-1.528.295a1.384 1.384 0 0 1 .386-.172 11.062 11.062 0 0 1 1.1-.316 14.593 14.593 0 0 1 3.752-.375 14.811 14.811 0 0 1 3.752.6 9.115 9.115 0 0 1 1.072.386c.267.134.385.198.385.22z" fill="#263238" transform="translate(-197.048 -147.167)"/><path d="m376.812 265a1.575 1.575 0 0 1 -.145.279l-.456.767c-.4.665-1 1.608-1.753 2.782-1.517 2.321-3.688 5.489-6.256 8.856-2.064 2.718-4.063 5.157-5.7 7.065l-.118.134-.07-.161c-.783-1.7-1.426-3.12-1.892-4.144-.209-.472-.375-.858-.509-1.152a2.143 2.143 0 0 1 -.155-.413 2.2 2.2 0 0 1 .22.386c.145.289.327.665.563 1.126.488 1.013 1.163 2.412 1.973 4.106l-.182-.027c1.608-1.93 3.586-4.374 5.65-7.087 2.562-3.366 4.749-6.508 6.309-8.8l1.828-2.729.5-.74a1.184 1.184 0 0 1 .193-.247z" fill="#263238" transform="translate(-175.822 -139.652)"/><path d="m415.867 415.539c-.08 0 .166-2.793.536-6.218s.75-6.191.826-6.181-.172 2.788-.536 6.213-.762 6.191-.826 6.186z" fill="#263238" transform="translate(-201.846 -203.741)"/><path d="m343.5 424.9a39.93 39.93 0 0 1 .638 4.674 37.991 37.991 0 0 1 .359 4.7 41.335 41.335 0 0 1 -.638-4.674 40.657 40.657 0 0 1 -.359-4.7z" fill="#263238" transform="translate(-168.279 -213.836)"/><g fill="#fff"><path d="m395.79 310.237a.686.686 0 0 0 -1.04-.413l-.038.032a.649.649 0 1 0 1.072.381z" transform="translate(-191.938 -160.397)"/><path d="m385.364 284.817a.686.686 0 0 0 -1.04-.413l-.032.032a.649.649 0 1 0 1.072.381z" transform="translate(-187.103 -148.603)"/><path d="m361.434 305.287a.686.686 0 0 0 -1.04-.413h-.032a.649.649 0 1 0 1.072.386z" transform="translate(-176.001 -158.1)"/><path d="m335.564 295.007a.681.681 0 0 0 -1.035-.413l-.038.032a.649.649 0 1 0 1.072.381z" transform="translate(-163.999 -153.331)"/><path d="m330.982 284.877a.686.686 0 0 0 -1.04-.413l-.038.032a.654.654 0 1 0 1.072.381z" transform="translate(-161.866 -148.631)"/><path d="m332.979 273.177a.686.686 0 0 0 -1.04-.413l-.038.027a.649.649 0 1 0 1.072.386z" transform="translate(-162.797 -143.203)"/><path d="m318.649 289.277a.686.686 0 0 0 -1.04-.413l-.038.027a.649.649 0 1 0 1.072.386z" transform="translate(-156.149 -150.673)"/><path d="m351.884 293.917a.681.681 0 0 0 -1.035-.413l-.037.032a.649.649 0 1 0 1.072.381z" transform="translate(-171.571 -152.825)"/><path d="m323.739 314.787a.686.686 0 0 0 -1.04-.413h-.038a.649.649 0 1 0 1.072.386z" transform="translate(-158.51 -162.508)"/><path d="m298.024 374.807a.686.686 0 0 0 -1.04-.413l-.032.027a.649.649 0 1 0 1.072.386z" transform="translate(-146.582 -190.354)"/><path d="m307.2 340.187a.686.686 0 0 0 -1.04-.413l-.038.032a.649.649 0 1 0 1.072.381z" transform="translate(-150.837 -174.292)"/><path d="m374.879 279.407a.686.686 0 0 0 -1.04-.413l-.038.027a.649.649 0 1 0 1.072.386z" transform="translate(-182.236 -146.093)"/><path d="m407.112 348.327a.686.686 0 0 0 -1.04-.413l-.038.032a.654.654 0 1 0 1.072.381z" transform="translate(-197.186 -178.068)"/><path d="m419.694 289.017a.681.681 0 0 0 -1.035-.413l-.038.027a.649.649 0 1 0 1.072.386z" transform="translate(-203.03 -150.552)"/><path d="m414.752 327.857a.686.686 0 0 0 -1.04-.413l-.038.032a.654.654 0 1 0 1.072.381z" transform="translate(-200.731 -168.571)"/><path d="m386.55 355.907a.686.686 0 0 0 -1.04-.413l-.038.032a.649.649 0 1 0 1.072.381z" transform="translate(-187.651 -181.585)"/><path d="m387.732 332.547a.686.686 0 0 0 -1.04-.413l-.038.032a.654.654 0 1 0 1.072.381z" transform="translate(-188.195 -170.747)"/><path d="m404.754 289.217a.681.681 0 0 0 -1.035-.413l-.038.032a.649.649 0 1 0 1.072.381z" transform="translate(-196.099 -150.645)"/><path d="m381.884 266.6a.681.681 0 0 0 -1.035-.413l-.038.027a.649.649 0 1 0 1.072.386z" transform="translate(-185.488 -140.15)"/><path d="m381.014 303.064a.681.681 0 0 0 -1.04-.413l-.032.027a.649.649 0 1 0 1.072.386z" transform="translate(-185.085 -157.067)"/><path d="m351.792 414.327a.681.681 0 0 0 -1.013-.413l-.038.027a.649.649 0 1 0 1.072.386z" transform="translate(-171.538 -208.694)"/><path d="m318.22 396.017a.686.686 0 0 0 -1.04-.413l-.038.032a.649.649 0 1 0 1.072.381z" transform="translate(-155.95 -200.194)"/><path d="m291.094 404.987a.686.686 0 0 0 -1.04-.413l-.032.027a.649.649 0 1 0 1.072.386z" transform="translate(-143.367 -204.355)"/><path d="m288.189 420.437a.686.686 0 0 0 -1.04-.413l-.038.027a.649.649 0 1 0 1.072.386z" transform="translate(-142.017 -211.523)"/><path d="m313.624 425.607a.686.686 0 0 0 -1.04-.413l-.032.032a.649.649 0 1 0 1.072.381z" transform="translate(-153.82 -213.922)"/><path d="m305.112 391.007a.686.686 0 0 0 -1.04-.413l-.038.032a.654.654 0 1 0 1.072.381z" transform="translate(-149.864 -197.869)"/><path d="m336.324 399.8a.681.681 0 0 0 -1.04-.413l-.032.027a.649.649 0 1 0 1.072.386z" transform="translate(-164.351 -201.949)"/><path d="m410.494 390.954a.675.675 0 0 0 -1.035-.413l-.038.027a.649.649 0 1 0 1.072.386z" transform="translate(-198.762 -197.843)"/><path d="m364.6 434.927a.686.686 0 0 0 -1.04-.413l-.038.032a.649.649 0 1 0 1.072.381z" transform="translate(-177.467 -218.246)"/><path d="m384.174 410.447a.681.681 0 0 0 -1.035-.413l-.038.032a.649.649 0 1 0 1.072.381z" transform="translate(-186.551 -206.888)"/><path d="m395.814 430.346a.686.686 0 0 0 -1.029-.434l-.032.032a.649.649 0 1 0 1.072.381z" transform="translate(-191.956 -216.114)"/><path d="m363.45 326.1a.686.686 0 0 0 -1.04-.413l-.038.032a.649.649 0 1 0 1.072.381z" transform="translate(-176.934 -167.755)"/><path d="m389.779 376.927a.686.686 0 0 0 -1.04-.413l-.038.027a.649.649 0 1 0 1.072.386z" transform="translate(-189.149 -191.337)"/><path d="m381.239 396.177a.686.686 0 0 0 -1.04-.413l-.038.027a.649.649 0 1 0 1.072.386z" transform="translate(-185.187 -200.268)"/><path d="m409.31 411.637a.686.686 0 0 0 -1.04-.413l-.037.032a.649.649 0 1 0 1.072.381z" transform="translate(-198.21 -207.441)"/><path d="m332.5 433.964a.681.681 0 0 0 -1.04-.413l-.038.027a.649.649 0 1 0 1.072.386z" transform="translate(-162.574 -217.797)"/><path d="m268.492 428.117a.686.686 0 0 0 -1.04-.413l-.038.032a.654.654 0 1 0 1.072.381z" transform="translate(-132.875 -215.086)"/><path d="m324.872 417.607a.686.686 0 0 0 -1.04-.413l-.038.032a.654.654 0 1 0 1.072.381z" transform="translate(-159.032 -210.21)"/><path d="m270.884 406.174a.681.681 0 0 0 -1.04-.413l-.032.027a.649.649 0 1 0 1.072.386z" transform="translate(-133.991 -204.904)"/><path d="m361.079 369.877a.686.686 0 0 0 -1.04-.413l-.038.027a.649.649 0 1 0 1.072.386z" transform="translate(-175.834 -188.066)"/><path d="m342.2 314.787a.686.686 0 0 0 -1.04-.413h-.037a.649.649 0 1 0 1.072.386z" transform="translate(-167.074 -162.508)"/><path d="m337.484 362.547a.686.686 0 0 0 -1.04-.413l-.032.032a.649.649 0 1 0 1.072.381z" transform="translate(-164.89 -184.666)"/><path d="m329.8 346.977a.686.686 0 0 0 -1.04-.413h-.032a.649.649 0 1 0 1.072.386z" transform="translate(-161.326 -177.442)"/><path d="m363.762 395.957a.686.686 0 0 0 -1.04-.413l-.038.032a.654.654 0 1 0 1.072.381z" transform="translate(-177.074 -200.166)"/><path d="m339.82 386.332a.681.681 0 0 0 -1.04-.429l-.038.032a.649.649 0 1 0 1.072.381z" transform="translate(-165.971 -195.692)"/><path d="m350.074 333.6a.681.681 0 0 0 -1.035-.413l-.038.027a.649.649 0 1 0 1.072.386z" transform="translate(-170.73 -171.234)"/><path d="m313.624 370.947a.686.686 0 0 0 -1.04-.413l-.032.032a.649.649 0 1 0 1.072.381z" transform="translate(-153.82 -188.563)"/><path d="m369.879 353.807a.686.686 0 0 0 -1.04-.413l-.038.027a.649.649 0 1 0 1.072.386z" transform="translate(-179.916 -180.611)"/><path d="m422.07 309.047a.686.686 0 0 0 -1.04-.413l-.038.032a.649.649 0 1 0 1.072.381z" transform="translate(-204.13 -159.845)"/><path d="m400.88 275.157a.686.686 0 0 0 -1.04-.413l-.038.032a.649.649 0 1 0 1.072.381z" transform="translate(-194.299 -144.122)"/><path d="m359.819 279.407a.686.686 0 0 0 -1.04-.413l-.038.027a.649.649 0 1 0 1.072.386z" transform="translate(-175.249 -146.093)"/></g><path d="m311.967 158.21c-4.219 2.68-5.9 8.314-5.1 11.643.407 1.678 1.169 3.366.836 5.055-.284 1.463-1.34 2.637-2.144 3.9a11.75 11.75 0 0 0 14.688 16.972" fill="#263238" transform="translate(-149.852 -90.108)"/><path d="m312.265 172.47c-10.271-22.589 14.163-33.938 27.489-30.175 12.528 3.538 17.872 9.772 19.936 18.151s1.962 17.465-1.324 25.447c-1.608 3.935-4.535 7.934-8.765 8.427" fill="#263238" transform="translate(-152.648 -82.395)"/><path d="m326.342 234.084c-.177-10.8-.306-25.618-.306-25.559s-9.258-1.538-11.2-13.632c-.954-6.02-.649-15.889-.145-23.956.461-7.264 5.269-16.173 12.506-15.406l22.595 5.709a4.251 4.251 0 0 1 3.806 4.321l-1.469 46.728" fill="#ffbe9d" transform="translate(-154.691 -88.843)"/><path d="m322.64 196.883a1.539 1.539 0 0 0 1.469 1.571 1.474 1.474 0 0 0 1.608-1.372 1.549 1.549 0 0 0 -1.469-1.576 1.48 1.48 0 0 0 -1.608 1.378z" fill="#263238" transform="translate(-158.601 -107.408)"/><path d="m352.56 196.882a1.538 1.538 0 0 0 1.469 1.565 1.474 1.474 0 0 0 1.608-1.372 1.538 1.538 0 0 0 -1.469-1.571 1.474 1.474 0 0 0 -1.608 1.378z" fill="#263238" transform="translate(-172.482 -107.407)"/><path d="m319.5 191.514c.188.209 1.394-.622 3.061-.536s2.863.933 3.056.734c.091-.086-.1-.456-.616-.863a4.235 4.235 0 0 0 -2.434-.842 4.106 4.106 0 0 0 -2.444.7c-.523.368-.713.711-.623.807z" fill="#263238" transform="translate(-157.134 -104.859)"/><path d="m349.078 192.135c.193.2 1.367-.675 3.034-.675s2.9.826 3.077.622c.091-.091-.107-.456-.643-.842a4.235 4.235 0 0 0 -2.466-.75 4.064 4.064 0 0 0 -2.412.793c-.515.397-.687.761-.59.852z" fill="#263238" transform="translate(-170.855 -105.084)"/><path d="m334.755 205.511a11.208 11.208 0 0 0 -2.712-.493c-.429-.043-.831-.129-.9-.418a2.144 2.144 0 0 1 .284-1.265c.4-1.029.82-2.112 1.26-3.249 1.753-4.621 3.018-8.427 2.83-8.5s-1.758 3.624-3.506 8.25l-1.211 3.27a2.455 2.455 0 0 0 -.22 1.673 1.072 1.072 0 0 0 .7.622 2.723 2.723 0 0 0 .724.1 11.148 11.148 0 0 0 2.751.01z" fill="#263238" transform="translate(-162.257 -105.593)"/><path d="m336.27 250.691a30.807 30.807 0 0 0 16.21-4.321s-4.1 8.416-16.21 7.285z" fill="#eb996e" transform="translate(-164.924 -131.009)"/><path d="m348.322 188.038c.161.456 1.833.236 3.79.477s3.543.767 3.806.359c.118-.193-.161-.622-.8-1.072a6.652 6.652 0 0 0 -5.789-.638c-.718.3-1.082.659-1.007.874z" fill="#263238" transform="translate(-170.511 -103.361)"/><path d="m320.2 183.5c.295.381 1.447 0 2.83-.032s2.557.257 2.825-.139c.118-.193-.064-.574-.579-.933a3.913 3.913 0 0 0 -2.3-.622 3.956 3.956 0 0 0 -2.257.761c-.484.383-.644.775-.519.965z" fill="#263238" transform="translate(-157.451 -101.039)"/><path d="m383.221 203.483c.177-.086 6.481-2.873 6.556 4.374s-7.221 5.827-7.237 5.618.681-9.992.681-9.992z" fill="#ffbe9d" transform="translate(-186.391 -110.835)"/><path d="m386.615 212.476c.032 0 .129.086.343.182a1.276 1.276 0 0 0 .943 0 3.129 3.129 0 0 0 1.415-2.82 4.057 4.057 0 0 0 -.37-1.8 1.447 1.447 0 0 0 -.96-.96.638.638 0 0 0 -.74.354c-.1.2-.048.348-.086.359s-.161-.118-.1-.418a.8.8 0 0 1 .279-.456.943.943 0 0 1 .7-.193 1.774 1.774 0 0 1 1.329 1.11 4.289 4.289 0 0 1 .461 2.016c-.032 1.458-.767 2.836-1.812 3.147a1.362 1.362 0 0 1 -1.158-.177c-.227-.167-.265-.334-.244-.344z" fill="#eb996e" transform="translate(-188.279 -112.612)"/><path d="m329.89 148.88c-4.031 2.085-5.693 10.33-4.026 14.554s6.165 6.283 10.6 7.253a26.973 26.973 0 0 0 13.155-.129c.3 2.938 2.064 5.956 4.916 6.733 3.779 1.024 7.585-2.434 8.427-6.256s-.423-7.757-1.667-11.472" fill="#263238" transform="translate(-159.799 -85.779)"/><path d="m382.353 193.4a5.253 5.253 0 0 1 -.563.536 18.931 18.931 0 0 1 -1.667 1.26 10.313 10.313 0 0 1 -2.82 1.367 6.1 6.1 0 0 1 -3.844-.059 5.945 5.945 0 0 1 -2.911-2.514 8.078 8.078 0 0 1 -1.045-2.959 10.8 10.8 0 0 1 -.113-2.1 2.344 2.344 0 0 1 .091-.761c.08 0 0 1.1.311 2.809a8.319 8.319 0 0 0 1.072 2.809 5.72 5.72 0 0 0 2.729 2.326 5.864 5.864 0 0 0 3.6.075 10.839 10.839 0 0 0 2.761-1.238c1.488-.933 2.356-1.608 2.399-1.551z" fill="#263238" transform="translate(-180.286 -104.008)"/><path d="m339.154 224.736a6.849 6.849 0 0 0 .9 1.764 2.337 2.337 0 0 0 1.667.97 2.144 2.144 0 0 0 1.78-.97 3.382 3.382 0 0 0 .493-2.026c-.027-.638-.322-1.4-.954-1.474a1.554 1.554 0 0 0 -.767.172l-3.334 1.351" fill="#eb996e" transform="translate(-166.163 -120.166)"/><path d="m339.945 227.159a4.772 4.772 0 0 0 1.78-.22 2.53 2.53 0 0 0 1.346-1.217 2.68 2.68 0 0 0 .043-2.182 2.526 2.526 0 0 0 -.29-.5c-.134-.139-.113-.134-.252-.113a3.515 3.515 0 0 0 -.536.209l-.536.225c-.713.289-1.362.536-1.9.745a5.387 5.387 0 0 1 -1.817.536 5.693 5.693 0 0 1 1.651-.933c.536-.252 1.152-.536 1.855-.863l.536-.241c.2-.08.343-.166.611-.252a.783.783 0 0 1 .493 0 .911.911 0 0 1 .37.289 3.05 3.05 0 0 1 .273 3.3 2.825 2.825 0 0 1 -1.694 1.367 2.643 2.643 0 0 1 -1.442.059c-.347-.059-.502-.168-.491-.209z" fill="#263238" transform="translate(-165.624 -119.849)"/><path d="m393.563 194.728c-.74-.054-6.728.724-6.256 11.847.44 10.394 7.73 8.105 10.056 4.192 2.188-3.704 3.463-15.53-3.8-16.039z" fill="#455a64" transform="translate(-188.59 -107.049)"/><path d="m399.175 183.874a1.8 1.8 0 0 1 -.027-.289c0-.22 0-.5-.032-.852 0-.767-.054-1.839-.091-3.168-.054-2.729-.129-6.529-.22-10.909l.134.129h-3.082l.139-.139c0 .826.043 1.7.07 2.589.1 4.171.2 8.041.279 11.316v.1h-.091a5.58 5.58 0 0 0 -3.179 2.048 7.505 7.505 0 0 0 -1.27 2.68 11.825 11.825 0 0 0 -.327 1.9c0 .22-.027.391-.032.5a1.51 1.51 0 0 0 0 .177.746.746 0 0 1 0-.177v-.509a9.972 9.972 0 0 1 .268-1.93 7.5 7.5 0 0 1 1.249-2.766 5.779 5.779 0 0 1 3.275-2.144l-.091.118c-.091-3.254-.2-7.14-.322-11.316-.027-.884-.048-1.758-.07-2.589v-.143h3.361v.134c.048 4.385.091 8.18.123 10.914v4.015a1.153 1.153 0 0 1 -.064.311z" fill="#455a64" transform="translate(-190.52 -94.882)"/><path d="m382.1 156.3a23.9 23.9 0 0 0 -10.587-10.941 44.584 44.584 0 0 0 -8.936-3.313s4.353-1.029 11.391 2.1c3.216 1.426 6.433 3.275 8.577 6.057 1.351 1.764 3.045 5.21 3.039 6.095z" fill="#455a64" transform="translate(-177.131 -82.535)"/><path d="m363 286.06s.043-.054.134-.145.23-.23.4-.418a19.9 19.9 0 0 0 1.447-1.715 28.018 28.018 0 0 0 1.957-3c.7-1.217 1.426-2.653 2.214-4.256 1.581-3.216 3.409-7.087 5.307-11.536.943-2.225 1.908-4.589 2.873-7.081l.718-1.887a10.958 10.958 0 0 1 .863-1.9 3.935 3.935 0 0 1 1.555-1.48 2.208 2.208 0 0 1 1.072-.273 1.11 1.11 0 0 1 .568.2 1.217 1.217 0 0 1 .359.482v.08a1.856 1.856 0 0 1 -.289.713 1.126 1.126 0 0 1 -.67.44 2.428 2.428 0 0 1 -1.5-.273 2.369 2.369 0 0 1 -1.324-2.6 2.085 2.085 0 0 1 .874-1.308 2.433 2.433 0 0 1 1.522-.434 1.678 1.678 0 0 1 1.4.777.809.809 0 0 1 -.054.874 1.544 1.544 0 0 1 -.681.493 2.235 2.235 0 0 1 -2.568-.729 1.881 1.881 0 0 1 -.348-1.351 2.321 2.321 0 0 1 .536-1.265 1.941 1.941 0 0 1 1.206-.665 1.544 1.544 0 0 1 1.3.45.965.965 0 0 1 .257.681.9.9 0 0 1 -.311.659 1.5 1.5 0 0 1 -1.308.354 1.646 1.646 0 0 1 -1.045-.836 3.445 3.445 0 0 1 -.391-1.238 4.386 4.386 0 0 1 .284-2.5 1.86 1.86 0 0 1 .917-.906 1.678 1.678 0 0 1 1.27.043 1.206 1.206 0 0 1 .788.992 1.1 1.1 0 0 1 -.681 1.072 1.351 1.351 0 0 1 -1.233 0 1.7 1.7 0 0 1 -.767-.943 2.354 2.354 0 0 1 -.07-1.169 5.319 5.319 0 0 1 .247-1.115 2.042 2.042 0 0 1 .649-.949 2.6 2.6 0 0 1 1.013-.5 1.072 1.072 0 0 1 .59 0 1.249 1.249 0 0 1 .488.311 1.4 1.4 0 0 1 .316.472.788.788 0 0 1 0 .6.965.965 0 0 1 -.96.536 1.748 1.748 0 0 1 -1.008-.338 2.766 2.766 0 0 1 -1.072-1.689 2.846 2.846 0 0 1 .295-1.962 2.171 2.171 0 0 1 .606-.734 1.957 1.957 0 0 1 .852-.37 1.378 1.378 0 0 1 .911.129.949.949 0 0 1 .493.756 1.335 1.335 0 0 1 -1.008 1.287 1.458 1.458 0 0 1 -1.458-.536 2.337 2.337 0 0 1 -.536-1.372 8.578 8.578 0 0 1 .536-2.562c.22-.772.418-1.479.6-2.112.359-1.26.638-2.241.836-2.916.091-.327.166-.579.22-.756s.086-.257.086-.257a.911.911 0 0 1 -.059.263c-.059.172-.113.44-.193.767-.182.681-.45 1.667-.788 2.927l-.574 2.117a9.137 9.137 0 0 0 -.5 2.52 2.23 2.23 0 0 0 .536 1.276 1.3 1.3 0 0 0 1.287.482 1.158 1.158 0 0 0 .868-1.072.767.767 0 0 0 -.4-.606 1.217 1.217 0 0 0 -.783-.1 1.754 1.754 0 0 0 -.772.338 2.016 2.016 0 0 0 -.536.67 2.68 2.68 0 0 0 -.2 1.769 2.562 2.562 0 0 0 1 1.549 1.571 1.571 0 0 0 .879.295.734.734 0 0 0 .74-.391.82.82 0 0 0 -.284-.815 1.071 1.071 0 0 0 -.391-.252.922.922 0 0 0 -.466 0 2.037 2.037 0 0 0 -1.485 1.3 4.876 4.876 0 0 0 -.23 1.072 2.086 2.086 0 0 0 .064 1.072 1.409 1.409 0 0 0 .643.8 1.12 1.12 0 0 0 1 0 .842.842 0 0 0 .536-.8.949.949 0 0 0 -.627-.767 1.458 1.458 0 0 0 -1.072-.038 1.608 1.608 0 0 0 -.777.777 4.165 4.165 0 0 0 -.252 2.343 3.215 3.215 0 0 0 .359 1.142 1.383 1.383 0 0 0 .863.7 1.222 1.222 0 0 0 1.072-.284.665.665 0 0 0 .038-.96 1.281 1.281 0 0 0 -1.072-.359 1.645 1.645 0 0 0 -1.029.579 1.844 1.844 0 0 0 -.193 2.268 1.967 1.967 0 0 0 2.241.633 1.334 1.334 0 0 0 .536-.4.536.536 0 0 0 .032-.579 1.41 1.41 0 0 0 -1.174-.627 2.01 2.01 0 0 0 -2.107 1.517 2.069 2.069 0 0 0 1.126 2.257 2.107 2.107 0 0 0 1.313.257 1.072 1.072 0 0 0 .75-.938v.08a.8.8 0 0 0 -.7-.536 1.914 1.914 0 0 0 -.949.247 3.645 3.645 0 0 0 -1.453 1.383 10.477 10.477 0 0 0 -.842 1.849l-.709 1.89c-.965 2.487-1.941 4.825-2.895 7.076-1.908 4.449-3.752 8.33-5.361 11.525-.8 1.608-1.538 3.029-2.251 4.246a27.5 27.5 0 0 1 -2 2.986 14.091 14.091 0 0 1 -2.036 2.227z" fill="#fff" transform="translate(-177.326 -123.591)"/><path d="m373.334 170.947a7.034 7.034 0 0 0 -.488-1.983 7.811 7.811 0 0 0 -3.846-3.854 10.394 10.394 0 0 0 -3.71-.906 17.457 17.457 0 0 0 -4.4.332c-3.072.568-6.3 1.892-9.912 2.439a20.211 20.211 0 0 1 -5.307 0 21.357 21.357 0 0 1 -4.771-1.3 21.056 21.056 0 0 1 -6.969-4.589 18.762 18.762 0 0 1 -3.366-4.5 6.379 6.379 0 0 1 -.4-.788l-.257-.6c-.064-.145-.113-.268-.155-.365a.461.461 0 0 1 -.043-.129.532.532 0 0 1 .07.118l.177.354.284.579a6.727 6.727 0 0 0 .418.777 19.52 19.52 0 0 0 3.409 4.412 20.906 20.906 0 0 0 11.616 5.752 19.873 19.873 0 0 0 5.232 0c3.565-.536 6.8-1.855 9.906-2.412a17.56 17.56 0 0 1 4.46-.311 10.426 10.426 0 0 1 3.779.96 7.821 7.821 0 0 1 3.865 3.988 5.851 5.851 0 0 1 .37 1.49v.4a.462.462 0 0 1 .037.134z" fill="#455a64" transform="translate(-161.881 -88.484)"/><path d="m364.86 158.1a2.6 2.6 0 0 1 -.386.064c-.252.038-.627.091-1.1.177-.954.155-2.321.461-4 .879a42.607 42.607 0 0 1 -6 1.163 30.142 30.142 0 0 1 -7.473-.166 31.627 31.627 0 0 1 -7.221-1.941 30.557 30.557 0 0 1 -5.441-2.814c-.718-.488-1.362-.938-1.908-1.367s-1.008-.8-1.362-1.131l-.815-.767c-.182-.177-.279-.273-.268-.284a2.094 2.094 0 0 1 .306.241l.847.724c.365.322.852.665 1.388 1.072s1.2.852 1.919 1.324a32.339 32.339 0 0 0 12.576 4.648 30.767 30.767 0 0 0 7.414.182 43.792 43.792 0 0 0 5.972-1.072c1.689-.391 3.072-.67 4.037-.8.482-.064.858-.1 1.115-.118a1.974 1.974 0 0 1 .4-.014z" fill="#455a64" transform="translate(-161.495 -87.185)"/><path d="m394.561 214.238a1.024 1.024 0 0 1 -.209-.064 3.411 3.411 0 0 1 -.536-.284 4.922 4.922 0 0 1 -1.571-1.673 8.078 8.078 0 0 1 -.965-3.265 23.415 23.415 0 0 1 0-4.16 25.337 25.337 0 0 1 .686-4.1 11.829 11.829 0 0 1 1.2-3.179 4.91 4.91 0 0 1 1.608-1.667 2.938 2.938 0 0 1 .536-.279c.134-.048.209-.07.209-.059a6.532 6.532 0 0 0 -.708.429 5.141 5.141 0 0 0 -1.469 1.672 12.064 12.064 0 0 0 -1.115 3.147 26.8 26.8 0 0 0 -.665 4.063 25.058 25.058 0 0 0 0 4.106 8.152 8.152 0 0 0 .879 3.216 5.017 5.017 0 0 0 1.458 1.683c.401.285.678.387.662.414z" fill="#263238" transform="translate(-190.403 -107.411)"/><rect fill="#455a64" height="3.265" rx="1.632" transform="matrix(.98129266 -.19252197 .19252197 .98129266 173.045 106.545)" width="8.663"/><path d="m354.47 221.929 25.436-7.977a1.2 1.2 0 0 1 1.5.777 1.206 1.206 0 0 1 -.831 1.528l-26.01 7.022z" fill="#455a64" transform="translate(-173.368 -115.944)"/><path d="m385.578 218.47a5.694 5.694 0 0 1 .842-.295l2.326-.708c.976-.3 2.176-.622 3.442-1.035a2.3 2.3 0 0 0 .831-.536 1.254 1.254 0 0 0 .359-.885.772.772 0 0 0 -.536-.729 1.946 1.946 0 0 0 -1.072.032l-7.628 2.455-2.321.718a5.313 5.313 0 0 1 -.82.263 5.74 5.74 0 0 1 .831-.327l2.294-.8c1.946-.659 4.615-1.576 7.617-2.536a2.2 2.2 0 0 1 1.222 0 1.072 1.072 0 0 1 .708.986 1.523 1.523 0 0 1 -.44 1.072 2.573 2.573 0 0 1 -.976.536c-1.313.413-2.487.7-3.479.981l-2.327.627a4.752 4.752 0 0 1 -.873.181z" fill="#263238" transform="translate(-185.677 -115.99)"/><path d="m300.963 186c.868 3.056-2.235 5.677-3.329 8.663-1.072 2.884-.161 6.116 1.142 8.9s3.018 5.425 3.683 8.421c1.646 7.4-5.044 15.369-3.752 22.836a48.065 48.065 0 0 0 2.509 8.153 10.775 10.775 0 0 1 0 7.575c-1.447 4.288-3.9 6.3-5.629 10.469-.885 2.144-.815 4.524-.772 6.829s.032 4.717-1 6.786-3.377 3.667-5.607 3.066a8.218 8.218 0 0 0 9.821 1.871c2.932-1.565 4.573-4.739 5.977-7.751 6.8-14.586 10.394-15.819 10.185-31.912 0-1.035-.2-17.154-.2-17.154a16.082 16.082 0 0 1 -4.015-1.689c-7.591-5.243-7.869-14.581-7.81-21.823" fill="#263238" transform="translate(-142.627 -103.001)"/><path d="m333.629 277.08v6.074s-4.669 23.828-6.074 37.063-1.635 16.73-1.635 16.73 3.35 5.227 10.357-3.651 8.255-10.276 11.059-10.432c0 0-3.425-37.218-3.27-38.6a5.623 5.623 0 0 1 1.244-2.648z" fill="#ffbe9d" transform="translate(-160.123 -145.257)"/><path d="m349.488 235.6s-7.628 10.121-8.25 11.515-.938 2.176-.938 2.176l11.681 4.519 11.37-12.458 4.2-11.059-1.249-13.08s-2.487-.155-2.954 2.026a16.386 16.386 0 0 0 -.316 4.2l-3.484-2.8-5.623-1.71s-1.324 2.176.858 3.27a7.934 7.934 0 0 0 2.8 1.072l1.962 3.425-.858 3.838-3.978-3.752a2.268 2.268 0 0 0 -2.895-.182l-2.573 1.865-2.401-1.065-4.669 4.176-1.871 1.71a2.88 2.88 0 0 0 3.752 1.249l2.493-1.072z" fill="#ffbe9d" transform="translate(-166.794 -117.483)"/><path d="m340.161 251.215a2.519 2.519 0 0 1 0-.327 9.074 9.074 0 0 1 .075-.949 11.154 11.154 0 0 1 .295-1.528 6.774 6.774 0 0 1 .815-1.962c1.748-2.68 4.5-6.433 7.928-11.048v.139l-2.959-2.176h.1l-1.538.681a10.644 10.644 0 0 1 -1.64.638 2.68 2.68 0 0 1 -1.823-.209 3.356 3.356 0 0 1 -1.372-1.308l-.043-.075.07-.064c2-1.887 4.24-3.79 6.535-5.827l.07-.059.075.043 2.074 1.228h-.134l2.423-1.608c.424-.273.8-.536 1.26-.815a1.512 1.512 0 0 1 1.565.134l4.723 3.994-.22.075c.257-1.153.536-2.4.815-3.661v.1l-1.962-3.425.123.07a3.91 3.91 0 0 1 -.97-.263c-.306-.113-.611-.241-.917-.375s-.606-.284-.906-.429c-.155-.075-.306-.177-.456-.263a2.833 2.833 0 0 1 -.407-.354 1.973 1.973 0 0 1 -.536-1.431 3.157 3.157 0 0 1 .413-1.458l.054-.091.107.032 5.618 1.715h.027l3.484 2.8-.22.118a16.65 16.65 0 0 1 .295-4.144 2.525 2.525 0 0 1 1.136-1.726 3.613 3.613 0 0 1 1.983-.5h.145v.118c.44 4.648.852 9.033 1.233 13.08v.027c-1.555 4.074-2.97 7.773-4.224 11.048l-8.8 9.713-2.391 2.589c-.273.284-.482.509-.627.665l-.22.22s.064-.086.2-.241l.606-.681 2.359-2.621 8.759-9.649v.027l4.181-11.064v.054c-.391-4.047-.809-8.427-1.26-13.08l.123.123a3.3 3.3 0 0 0 -1.823.461 2.241 2.241 0 0 0 -1.013 1.555 16.084 16.084 0 0 0 -.289 4.069v.311l-.241-.193-3.538-2.82h.048l-5.618-1.71.155-.064a2.921 2.921 0 0 0 -.37 1.319 1.7 1.7 0 0 0 .461 1.238 2.881 2.881 0 0 0 .359.311c.145.08.273.166.423.241.3.145.6.295.9.423a7.876 7.876 0 0 0 1.774.616h.086l.032.054 1.962 3.425.027.048v.054c-.284 1.26-.536 2.509-.82 3.661l-.048.225-.177-.15-4.707-3.983a1.238 1.238 0 0 0 -1.287-.118c-.4.236-.826.536-1.233.8l-2.428 1.608-.064.043-.07-.038-2.075-1.233h.15c-2.294 2.026-4.535 3.929-6.545 5.806l.027-.139a3.093 3.093 0 0 0 1.265 1.212 2.418 2.418 0 0 0 1.673.193 10.613 10.613 0 0 0 1.608-.616l1.538-.675h.059l.048.032 2.954 2.187.08.059-.059.08c-3.447 4.615-6.224 8.336-7.993 10.989a6.969 6.969 0 0 0 -.831 1.924 12.415 12.415 0 0 0 -.316 1.512c-.059.413-.086.734-.1.943s-.028.32-.028.32z" fill="#eb996e" transform="translate(-166.655 -117.339)"/><path d="m360.185 246.76c-.054 0 .15-.826.236-2.144a4.922 4.922 0 0 0 -.365-2.251 6.02 6.02 0 0 0 -1.86-2.091 46.212 46.212 0 0 0 -4.326-2.943l-1.367-.8a2.626 2.626 0 0 1 -.493-.316 1.929 1.929 0 0 1 .536.22c.343.155.831.4 1.421.729a35.837 35.837 0 0 1 4.4 2.895 6.02 6.02 0 0 1 1.919 2.2 4.825 4.825 0 0 1 .332 2.369 10.1 10.1 0 0 1 -.263 1.576 2.086 2.086 0 0 1 -.17.556z" fill="#eb996e" transform="translate(-172.227 -126.295)"/><path d="m382.44 238.558a10.454 10.454 0 0 1 .2-1.4 21.974 21.974 0 0 0 .241-3.377 22.421 22.421 0 0 0 -.3-3.383 10.892 10.892 0 0 1 -.22-1.394 5.362 5.362 0 0 1 .413 1.356 16.56 16.56 0 0 1 .059 6.835 5.361 5.361 0 0 1 -.393 1.363z" fill="#eb996e" transform="translate(-186.308 -122.95)"/><path d="m238.3 129.407-5.575-9.847a26.379 26.379 0 1 0 -6.32 7.033z" fill="#fff" transform="translate(-94.226 -53.52)"/><path d="m238.247 129.391-11.933-2.734h-.1l.064-.086.1.1a26.866 26.866 0 0 1 -5.42 3.265 26.336 26.336 0 0 1 -7.221 2.058 23.667 23.667 0 0 1 -4.171.209c-.713-.038-1.447-.059-2.182-.118l-2.225-.338a26.546 26.546 0 0 1 -16.441-10.6 26.209 26.209 0 0 1 -4.449-10.185 26.8 26.8 0 0 1 .311-11.713 25.957 25.957 0 0 1 5.645-10.828l1.072-1.185a15.5 15.5 0 0 1 1.158-1.072 15.733 15.733 0 0 1 1.2-1.072l1.265-.943a11.256 11.256 0 0 1 1.308-.836l1.335-.809 1.4-.67a11.407 11.407 0 0 1 1.41-.627 26.937 26.937 0 0 1 11.793-1.817 26.026 26.026 0 0 1 10.819 3.21 26.685 26.685 0 0 1 12.5 15.38 28.373 28.373 0 0 1 1.147 8.577 26.053 26.053 0 0 1 -1.287 7.392 26.579 26.579 0 0 1 -2.643 5.671v-.07l5.527 9.88c-.236-.413-2.026-3.517-5.645-9.815v-.064a26.744 26.744 0 0 0 2.6-5.65 26.222 26.222 0 0 0 1.249-7.349 28.263 28.263 0 0 0 -1.163-8.5 26.492 26.492 0 0 0 -12.415-15.219 25.811 25.811 0 0 0 -10.721-3.157 26.631 26.631 0 0 0 -11.681 1.807 11.156 11.156 0 0 0 -1.394.622l-1.383.67-1.324.8a9.815 9.815 0 0 0 -1.292.858l-1.254.933c-.423.3-.783.692-1.179 1.029a12.752 12.752 0 0 0 -1.147 1.072l-1.072 1.169a25.73 25.73 0 0 0 -5.586 10.721 26.609 26.609 0 0 0 -.316 11.595 26 26 0 0 0 4.4 10.073 26.417 26.417 0 0 0 16.285 10.5l2.2.338c.729.064 1.458.08 2.144.123a23.84 23.84 0 0 0 4.138-.193 26.2 26.2 0 0 0 12.581-5.243l.418-.322-.322.423-.043-.113z" fill="#263238" transform="translate(-94.17 -53.504)"/><path d="m218.758 126.774a2.144 2.144 0 1 1 -2.144-2.144 2.144 2.144 0 0 1 2.144 2.144z" fill="#263238" transform="translate(-108.416 -74.528)"/><path d="m234.718 126.774a2.144 2.144 0 1 1 -2.144-2.144 2.144 2.144 0 0 1 2.144 2.144z" fill="#263238" transform="translate(-115.82 -74.528)"/><path d="m250.9 125.706a2.144 2.144 0 1 1 -2.922-.783 2.144 2.144 0 0 1 2.922.783z" fill="#263238" transform="translate(-123.462 -74.532)"/><path d="m271.37 442.019c0 .08-54.5.139-121.685.139s-121.685-.058-121.685-.139 54.48-.139 121.712-.139 121.658.064 121.658.139z" fill="#263238" transform="translate(-21.905 -221.714)"/><path d="m353.55 436.779a14.388 14.388 0 0 1 11.466-6.476c7.832-.268 11.745 6.476 11.745 6.476z" fill="#455a64" transform="translate(-172.941 -216.339)"/><path d="m377.8 436.479a8.7 8.7 0 0 1 -.23-1.169 7.553 7.553 0 0 0 -3.1-4.567 9.925 9.925 0 0 1 -1-.643 2.8 2.8 0 0 1 1.131.44 6.642 6.642 0 0 1 3.216 4.728 2.824 2.824 0 0 1 -.017 1.211z" fill="#263238" transform="translate(-182.178 -216.248)"/><path d="m281.618 439.257v-.057a3 3 0 0 0 -3.007-2.954h-66.654a3.007 3.007 0 0 0 -3.007 3.007z" fill="#455a64" transform="translate(-105.855 -219.102)"/><path d="m106.47 209.474c0 1.4 1.072 85.115 1.072 85.115l62.183 14.961h5.109l-3.27-116.861h-4.674z" fill="#263238" transform="translate(-58.31 -106.104)"/><path d="m114.321 376.29-19.271 35.316h17.615c-3.152-.311 27.875 0 27.875 0l-27.875-7.392 8.722-19.807-.745-8.116z" fill="#263238" transform="translate(-53.012 -191.284)"/><path d="m130 329.91-2.085-65.828 18.934-1.812 2.332 70.283-6.76.343z" fill="#263238" transform="translate(-68.257 -138.385)"/><path d="m136.588 343.578v-4.7c0-3.061-.027-7.5-.043-13.1 0-11.187-.027-26.932-.048-45.19l.134.134h-22.381l.139-.139v3.034c0 17.808 0 34.377-.027 48.186v.027c-5.8 10.63-10.609 19.454-13.975 25.618-1.683 3.077-3.007 5.489-3.913 7.14-.45.815-.8 1.437-1.035 1.871s-.37.633-.37.633.113-.225.338-.649.568-1.072 1-1.892c.9-1.656 2.2-4.079 3.86-7.167l13.884-25.667v-51.3h22.611v.134c0 18.258-.038 34-.048 45.19 0 5.586-.032 10.035-.043 13.1v4.4a.684.684 0 0 1 -.083.337z" fill="#455a64" transform="translate(-53.021 -146.806)"/><path d="m133.592 391.43c.07.027-2.611 6.229-5.988 13.841s-6.175 13.766-6.245 13.734 2.611-6.229 5.988-13.846 6.175-13.759 6.245-13.729z" fill="#455a64" transform="translate(-65.217 -198.308)"/><path d="m222.014 309.841v-1.185c0-.788-.027-1.93-.043-3.4 0-2.948-.091-7.215-.193-12.49-.2-10.55-.675-25.114-1.26-41.2s-1.029-30.668-1.179-41.218c-.08-5.275-.118-9.547-.1-12.5v-3.4c0 .788 0 1.93.043 3.4 0 2.948.086 7.215.193 12.49.231 10.55.708 25.13 1.292 41.212s1.029 30.657 1.179 41.207c.08 5.275.113 9.547.1 12.5v4.283a1.008 1.008 0 0 1 -.032.301z" fill="#455a64" transform="translate(-110.626 -106.373)"/><path d="m166.069 279.83c.08 0 .139 14 .139 31.268s-.059 31.268-.139 31.268-.139-14-.139-31.268.064-31.268.139-31.268z" fill="#455a64" transform="translate(-85.896 -146.532)"/><path d="m100.98 402.755a2.353 2.353 0 0 1 -.268-.375c-.091-.129-.193-.284-.311-.461a6.223 6.223 0 0 1 -.386-.654 16.494 16.494 0 0 1 -1.7-4.53 22.439 22.439 0 0 1 -.332-7.167 28.68 28.68 0 0 1 2.326-8.475 17.6 17.6 0 0 1 2.428-3.865 9.769 9.769 0 0 1 .713-.836c.247-.268.482-.536.729-.793.536-.488 1-.986 1.533-1.41a24.713 24.713 0 0 1 3.114-2.257c.536-.289 1.024-.595 1.528-.836a15.863 15.863 0 0 1 1.463-.67 16.767 16.767 0 0 1 4.674-1.244 8.833 8.833 0 0 1 1.313-.08 2.775 2.775 0 0 1 .461 0 3.567 3.567 0 0 1 -.456.048 11.56 11.56 0 0 0 -1.3.134 17.565 17.565 0 0 0 -4.615 1.319c-.477.177-.938.445-1.442.675a16.018 16.018 0 0 0 -1.506.847 24.74 24.74 0 0 0 -3.066 2.257c-.536.418-1 .917-1.512 1.4-.241.252-.477.536-.718.783a10.384 10.384 0 0 0 -.7.831 17.422 17.422 0 0 0 -2.391 3.811 28.738 28.738 0 0 0 -2.321 8.384 22.643 22.643 0 0 0 .268 7.1 17.325 17.325 0 0 0 1.608 4.519 5.7 5.7 0 0 0 .365.665l.284.477a3.457 3.457 0 0 1 .217.403z" fill="#455a64" transform="translate(-54.305 -187.944)"/></svg>