<svg xmlns="http://www.w3.org/2000/svg" width="22.954" height="22" viewBox="0 0 22.954 22">
  <path id="Icon_map-convenience-store" data-name="Icon map-convenience-store" d="M20.054,9.554h-.13a.938.938,0,0,0-.127-.174l-5.51-5.9a1.807,1.807,0,0,0,.039-.366,1.6,1.6,0,0,0-1.519-1.67H11.072A1.6,1.6,0,0,0,9.554,3.11a1.842,1.842,0,0,0,.039.366l-5.51,5.9a.984.984,0,0,0-.127.174H1.44v3.341h.955v7.159A2.386,2.386,0,0,0,4.781,22.44H20.054a2.386,2.386,0,0,0,2.386-2.386V12.895h.955V9.554H20.054ZM11.072,4.781h1.736l.078-.009,4.462,4.781H6.532l4.462-4.781.078.009ZM6.69,19.576a.955.955,0,1,1-1.909,0V13.849a.955.955,0,1,1,1.909,0Zm4.3,0a.955.955,0,1,1-1.909,0V13.849a.955.955,0,1,1,1.909,0Zm4.773,0a.955.955,0,1,1-1.909,0V13.849a.955.955,0,1,1,1.909,0Zm4.3,0a.955.955,0,1,1-1.909,0V13.849a.955.955,0,1,1,1.909,0Z" transform="translate(-0.94 -0.94)" fill="none" stroke="#4a4a4a" stroke-width="1"/>
</svg>
